<?xml version="1.0" encoding="UTF-8"?><svg id="a" xmlns="http://www.w3.org/2000/svg" viewBox="0 0 248 50"><defs><style>.b{fill:#969af8;}.c{fill:#8fd6ff;}.d{fill:none;stroke:#c5c9d3;stroke-miterlimit:10;}</style></defs><g><path class="b" d="M28.10352,26.44336c0,2.70312-1.57373,4.48145-3.88281,4.48145-1.19727,0-2.104-.41016-2.75391-1.31738v4.5332h-1.53955v-11.97363h1.53955v1.24902c.63281-.97559,1.55664-1.4541,2.70264-1.4541,2.2749,0,3.93408,1.69336,3.93408,4.48145Zm-1.69336,0c0-2.00098-.51318-3.2666-2.51465-3.2666-.78662,0-1.40234,.25586-1.81299,.76953-.44482,.54688-.66699,1.36816-.66699,2.48047,0,1.59082,.35889,3.2666,2.4458,3.2666,.95801,0,1.59082-.29102,2.00146-.87207,.39355-.53027,.54736-1.38574,.54736-2.37793Z"/><path class="b" d="M35.19922,29.41992h3.12988v1.2998h-8.07324v-1.2998h3.40381v-9.37402h-2.83936v-1.2998h4.37891v10.67383Z"/><path class="b" d="M46.9126,22.16699h1.53906v8.55273h-1.53906v-1.2832c-.46191,.97559-1.41992,1.48828-2.63428,1.48828-1.11182,0-1.91602-.30762-2.53174-.95801-.68408-.71777-.68408-1.84668-.68408-2.68555v-5.11426h1.59082v5.0293c0,.78613-.01709,1.4541,.49609,1.9502,.49609,.47852,1.06055,.49609,1.55664,.49609,.76953,0,2.20654-.18848,2.20654-2.66895v-4.80664Z"/><path class="b" d="M58.95117,21.96191l-.03418,1.4541c-.1709-.01758-.42773-.01758-.66699-.01758-1.89893,0-3.48926,.66699-3.48926,3.55859v3.7627h-1.53955v-8.55273h1.53955v1.72754c.39307-1.11133,1.72754-1.74414,3.36963-1.91504,.1709-.01758,.6499-.01758,.8208-.01758Z"/><path class="b" d="M70.45996,30.71973c-.3252,.05176-.61572,.06836-.95801,.06836-.94092,0-1.4541-.44434-1.53955-1.33398-.479,.97461-1.41943,1.4707-2.87354,1.4707-1.43701,0-2.87354-.78711-2.87354-2.46289,0-1.84766,1.55664-2.36035,2.90771-2.61719l2.82227-.54688c0-.77051-.03418-1.19824-.29053-1.55664-.23975-.34277-.8042-.56445-1.55664-.56445-1.48828,0-2.08691,.54688-2.08691,1.84668l-1.50537-.20508c.03418-1.02637,.39355-1.7793,1.06055-2.22363,.61572-.41016,1.52246-.63281,2.61719-.63281,2.15527,0,3.25,.95801,3.25,2.82227v4.08789c0,.44531,0,.65039,.49609,.65039,.13672,0,.27344-.01758,.49609-.06836l.03418,1.26562Zm-2.51465-3.23242v-1.04395l-2.58252,.56445c-.90674,.20508-1.57373,.46191-1.57373,1.43652,0,.80469,.70117,1.24902,1.53906,1.24902,1.86475,0,2.61719-.97461,2.61719-2.20605Z"/><path class="b" d="M77.60693,29.41992h3.12988v1.2998h-8.07373v-1.2998h3.4043v-9.37402h-2.83936v-1.2998h4.37891v10.67383Z"/><path class="c" d="M102.31689,26.44336c0,2.78809-1.65918,4.48145-3.93408,4.48145-1.146,0-2.06982-.47852-2.70264-1.4541v1.24902h-1.53955v-11.97363h1.53955v4.5332c.6499-.90723,1.55664-1.33496,2.75391-1.33496,2.30908,0,3.88281,1.79688,3.88281,4.49902Zm-1.69336,0c0-2.05273-.63281-3.28418-2.54883-3.28418-.92334,0-1.50537,.3252-1.86426,.83789-.46191,.65039-.58154,1.57422-.58154,2.46387,0,2.15527,.83789,3.28418,2.47998,3.28418,.94092,0,1.55664-.29102,1.9502-.82129,.42773-.56445,.56445-1.41992,.56445-2.48047Z"/><path class="c" d="M110.52441,22.16699h1.53906v8.55273h-1.53906v-1.2832c-.46191,.97559-1.41992,1.48828-2.63428,1.48828-1.11182,0-1.91602-.30762-2.53174-.95801-.68408-.71777-.68408-1.84668-.68408-2.68555v-5.11426h1.59082v5.0293c0,.78613-.01709,1.4541,.49609,1.9502,.49609,.47852,1.06055,.49609,1.55664,.49609,.76953,0,2.20654-.18848,2.20654-2.66895v-4.80664Z"/><path class="c" d="M119.94531,29.41992h3.13037v1.2998h-8.07373v-1.2998h3.4043v-5.95312h-2.9082v-1.2998h4.44727v7.25293Zm-.11963-10.70801v1.88184h-1.625v-1.88184h1.625Z"/><path class="c" d="M130.61621,29.41992h3.12988v1.2998h-8.07324v-1.2998h3.40381v-9.37402h-2.83936v-1.2998h4.37891v10.67383Z"/><path class="c" d="M142.43262,18.74609h1.53955v11.97363h-1.53955v-1.24902c-.63281,.97559-1.55664,1.4541-2.70264,1.4541-2.2749,0-3.93408-1.69336-3.93408-4.48145,0-2.70215,1.57324-4.48145,3.88281-4.48145,1.19727,0,2.104,.41016,2.75391,1.31738v-4.5332Zm.05127,7.71484c0-1.59082-.35938-3.26758-2.44629-3.26758-1.00879,0-1.65918,.3252-2.05225,.94043-.35938,.56543-.49609,1.33496-.49609,2.30957,0,2.00098,.51318,3.26758,2.51416,3.26758,.8042,0,1.41992-.25684,1.83057-.78711,.42725-.54785,.6499-1.36816,.6499-2.46289Z"/></g><g><path class="d" d="M220.67889,33.98513h-8.67889v-11.93354c0-.6027,.48216-1.08486,1.08486-1.08486h8.67889v11.93354c0,.6027-.48216,1.08486-1.08486,1.08486Z"/><path class="d" d="M216.82161,18.43545v-1.44648c0-.6027,.48216-1.08486,1.08486-1.08486h8.67889v11.93347c0,.6027-.48216,1.08486-1.08486,1.08486h-1.32594"/><path class="d" d="M216.82161,23.4982v5.54479h2.53134"/></g></svg>