<?xml version="1.0" encoding="UTF-8"?><svg id="a" xmlns="http://www.w3.org/2000/svg" viewBox="0 0 248 50"><defs><style>.b{fill:#969af8;}.c{fill:#8fd6ff;}.d{fill:none;stroke:#c5c9d3;stroke-miterlimit:10;}</style></defs><g><path class="b" d="M28.10352,26.44336c0,2.70312-1.57373,4.48145-3.88281,4.48145-1.19727,0-2.104-.41016-2.75391-1.31738v4.5332h-1.53955v-11.97363h1.53955v1.24902c.63281-.97559,1.55664-1.4541,2.70264-1.4541,2.2749,0,3.93408,1.69336,3.93408,4.48145Zm-1.69336,0c0-2.00098-.51318-3.2666-2.51465-3.2666-.78662,0-1.40234,.25586-1.81299,.76953-.44482,.54688-.66699,1.36816-.66699,2.48047,0,1.59082,.35889,3.2666,2.4458,3.2666,.95801,0,1.59082-.29102,2.00146-.87207,.39355-.53027,.54736-1.38574,.54736-2.37793Z"/><path class="b" d="M35.19922,29.41992h3.12988v1.2998h-8.07324v-1.2998h3.40381v-9.37402h-2.83936v-1.2998h4.37891v10.67383Z"/><path class="b" d="M46.9126,22.16699h1.53906v8.55273h-1.53906v-1.2832c-.46191,.97559-1.41992,1.48828-2.63428,1.48828-1.11182,0-1.91602-.30762-2.53174-.95801-.68408-.71777-.68408-1.84668-.68408-2.68555v-5.11426h1.59082v5.0293c0,.78613-.01709,1.4541,.49609,1.9502,.49609,.47852,1.06055,.49609,1.55664,.49609,.76953,0,2.20654-.18848,2.20654-2.66895v-4.80664Z"/><path class="b" d="M58.95117,21.96191l-.03418,1.4541c-.1709-.01758-.42773-.01758-.66699-.01758-1.89893,0-3.48926,.66699-3.48926,3.55859v3.7627h-1.53955v-8.55273h1.53955v1.72754c.39307-1.11133,1.72754-1.74414,3.36963-1.91504,.1709-.01758,.6499-.01758,.8208-.01758Z"/><path class="b" d="M70.45996,30.71973c-.3252,.05176-.61572,.06836-.95801,.06836-.94092,0-1.4541-.44434-1.53955-1.33398-.479,.97461-1.41943,1.4707-2.87354,1.4707-1.43701,0-2.87354-.78711-2.87354-2.46289,0-1.84766,1.55664-2.36035,2.90771-2.61719l2.82227-.54688c0-.77051-.03418-1.19824-.29053-1.55664-.23975-.34277-.8042-.56445-1.55664-.56445-1.48828,0-2.08691,.54688-2.08691,1.84668l-1.50537-.20508c.03418-1.02637,.39355-1.7793,1.06055-2.22363,.61572-.41016,1.52246-.63281,2.61719-.63281,2.15527,0,3.25,.95801,3.25,2.82227v4.08789c0,.44531,0,.65039,.49609,.65039,.13672,0,.27344-.01758,.49609-.06836l.03418,1.26562Zm-2.51465-3.23242v-1.04395l-2.58252,.56445c-.90674,.20508-1.57373,.46191-1.57373,1.43652,0,.80469,.70117,1.24902,1.53906,1.24902,1.86475,0,2.61719-.97461,2.61719-2.20605Z"/><path class="b" d="M77.60693,29.41992h3.12988v1.2998h-8.07373v-1.2998h3.4043v-9.37402h-2.83936v-1.2998h4.37891v10.67383Z"/><path class="c" d="M100.0249,18.74609h1.53955v11.97363h-1.53955v-1.24902c-.63281,.97559-1.55664,1.4541-2.70264,1.4541-2.2749,0-3.93408-1.69336-3.93408-4.48145,0-2.70215,1.57373-4.48145,3.88281-4.48145,1.19727,0,2.104,.41016,2.75391,1.31738v-4.5332Zm.05127,7.71484c0-1.59082-.35938-3.26758-2.44629-3.26758-1.00879,0-1.65918,.3252-2.05225,.94043-.35938,.56543-.49609,1.33496-.49609,2.30957,0,2.00098,.51318,3.26758,2.51416,3.26758,.8042,0,1.41992-.25684,1.83057-.78711,.42725-.54785,.6499-1.36816,.6499-2.46289Z"/><path class="c" d="M112.49121,26.90527h-6.48291c.03418,1.88184,.82129,2.78809,2.4292,2.78809,1.45361,0,2.24072-.61523,2.4458-1.91602l1.48828,.12012c-.37646,2.00098-1.74463,3.02734-3.91699,3.02734-1.31738,0-2.34326-.39355-3.0791-1.24805-.71826-.80469-1.04346-1.91602-1.04346-3.25,0-1.2666,.35938-2.37793,1.07764-3.18164,.75293-.85547,1.79639-1.2832,3.02783-1.2832,1.35107,0,2.63428,.58203,3.33545,1.69336,.51318,.82129,.78662,2.03516,.71826,3.25Zm-6.05518-2.77148c-.30762,.51367-.41064,1.09473-.41064,1.52246h4.89209c-.01709-.46191-.18799-1.11133-.46191-1.52246-.44434-.64941-1.07764-.92285-2.00098-.92285-.95801,0-1.67627,.3584-2.01855,.92285Z"/><path class="c" d="M123.52051,26.44336c0,2.70312-1.57373,4.48145-3.88281,4.48145-1.19727,0-2.104-.41016-2.75391-1.31738v4.5332h-1.53955v-11.97363h1.53955v1.24902c.63281-.97559,1.55664-1.4541,2.70264-1.4541,2.2749,0,3.93408,1.69336,3.93408,4.48145Zm-1.69336,0c0-2.00098-.51318-3.2666-2.51465-3.2666-.78662,0-1.40234,.25586-1.81299,.76953-.44482,.54688-.66699,1.36816-.66699,2.48047,0,1.59082,.35889,3.2666,2.4458,3.2666,.95801,0,1.59082-.29102,2.00146-.87207,.39355-.53027,.54736-1.38574,.54736-2.37793Z"/><path class="c" d="M130.61621,29.41992h3.12988v1.2998h-8.07324v-1.2998h3.40381v-9.37402h-2.83936v-1.2998h4.37891v10.67383Z"/><path class="c" d="M135.94971,26.44336c0-2.59961,1.625-4.48145,4.27637-4.48145,2.6167,0,4.25928,1.89844,4.25928,4.48145,0,2.68555-1.69385,4.48145-4.25928,4.48145-2.66846,0-4.27637-1.69336-4.27637-4.48145Zm6.1748,2.54883c.49609-.56445,.70117-1.43652,.70117-2.54883,0-1.11133-.20508-2.00098-.71826-2.56543-.41064-.44531-1.00928-.70117-1.88135-.70117-.83838,0-1.4541,.22168-1.86475,.64941-.54736,.56445-.75244,1.47168-.75244,2.61719,0,1.14648,.20508,2.05273,.75244,2.61719,.41064,.42773,1.00928,.65039,1.86475,.65039,.87207,0,1.48779-.25684,1.89844-.71875Z"/><path class="c" d="M153.30811,22.16699h1.60791l-3.48926,9.33984c-.6499,1.76172-1.26562,2.71973-2.53174,2.71973-.42773,0-.92334-.06836-1.35107-.1709l.03418-1.4541c.30762,.10254,.70117,.20508,1.11182,.20508,.6499,0,.94092-.70117,1.52246-2.17285l-3.33545-8.4668h1.6416l1.625,4.61816c.20557,.58203,.479,1.41992,.75293,2.29297,.20508-.63379,.29053-.95801,.76953-2.29297l1.64209-4.61816Z"/></g><g><path class="d" d="M220.67889,33.98513h-8.67889v-11.93354c0-.6027,.48216-1.08486,1.08486-1.08486h8.67889v11.93354c0,.6027-.48216,1.08486-1.08486,1.08486Z"/><path class="d" d="M216.82161,18.43545v-1.44648c0-.6027,.48216-1.08486,1.08486-1.08486h8.67889v11.93347c0,.6027-.48216,1.08486-1.08486,1.08486h-1.32594"/><path class="d" d="M216.82161,23.4982v5.54479h2.53134"/></g></svg>