<?xml version="1.0" encoding="UTF-8"?><svg id="a" xmlns="http://www.w3.org/2000/svg" viewBox="0 0 134 43"><defs><style>.b{fill:none;}.c{fill:#ebeff0;}.d{fill:#a1a5b0;}</style></defs><g><path class="c" d="M12.28955,26.84863h-1.56982l4.54004-12.36328h1.54541l4.53955,12.36328h-1.56934l-3.69482-10.40723h-.09668l-3.69434,10.40723Zm.57959-4.8291h6.32666v1.32812h-6.32666v-1.32812Z"/><path class="c" d="M23.9043,16.03027c-.27783,0-.51611-.09473-.71533-.2832-.19922-.18945-.29883-.41699-.29883-.68262s.09961-.49316,.29883-.68164c.19922-.18945,.4375-.28418,.71533-.28418s.51611,.09473,.71533,.28418c.19922,.18848,.29883,.41602,.29883,.68164s-.09961,.49316-.29883,.68262c-.19922,.18848-.4375,.2832-.71533,.2832Zm-.72412,10.81836v-9.27246h1.42432v9.27246h-1.42432Z"/><path class="c" d="M27.21289,26.84863v-9.27246h1.37598v1.40039h.09668c.16895-.45898,.4751-.83105,.91797-1.11719,.44238-.28516,.94141-.42871,1.49707-.42871,.10449,0,.23535,.00195,.39209,.00684,.15723,.00391,.27588,.00977,.35645,.01758v1.44922c-.04834-.0127-.1582-.03125-.3291-.05762s-.35107-.03906-.54053-.03906c-.45068,0-.85205,.09375-1.2041,.28027-.35205,.1875-.62988,.44531-.83301,.77344-.20361,.32715-.30518,.70117-.30518,1.11914v5.86816h-1.42432Z"/><path class="c" d="M38.24756,17.57617v1.20703h-4.99854v-1.20703h4.99854Zm-3.50146,9.27246v-10.55273c0-.53125,.125-.97363,.37451-1.32812,.24951-.35352,.57324-.61914,.97168-.79688,.39844-.17676,.81934-.26562,1.26172-.26562,.35059,0,.63623,.02832,.85742,.08496,.22119,.05566,.38623,.1084,.49512,.15625l-.41064,1.23242c-.07227-.02441-.17188-.05469-.29883-.09082-.12646-.03613-.29248-.05469-.49805-.05469-.4707,0-.81006,.11914-1.01709,.35645-.20752,.2373-.31104,.58594-.31104,1.04395v10.21484h-1.4248Z"/><path class="c" d="M41.67676,14.48535v12.36328h-1.42432V14.48535h1.42432Z"/><path class="c" d="M48.05127,27.04199c-.83691,0-1.57031-.19922-2.2002-.59766s-1.12109-.95605-1.47314-1.67285c-.35205-.71582-.52832-1.55273-.52832-2.51074,0-.96582,.17627-1.80957,.52832-2.5293,.35205-.7207,.84326-1.28027,1.47314-1.67871s1.36328-.59766,2.2002-.59766c.8374,0,1.5708,.19922,2.20068,.59766s1.12061,.95801,1.47314,1.67871c.35205,.71973,.52832,1.56348,.52832,2.5293,0,.95801-.17627,1.79492-.52832,2.51074-.35254,.7168-.84326,1.27441-1.47314,1.67285s-1.36328,.59766-2.20068,.59766Zm0-1.28027c.63623,0,1.15918-.16309,1.56982-.48828,.41064-.32617,.71436-.75488,.91162-1.28613s.2959-1.10645,.2959-1.72656-.09863-1.19727-.2959-1.73242-.50098-.96777-.91162-1.29785-.93359-.49512-1.56982-.49512c-.63574,0-1.15869,.16504-1.56934,.49512s-.71436,.7627-.91162,1.29785-.2959,1.1123-.2959,1.73242,.09863,1.19531,.2959,1.72656,.50098,.95996,.91162,1.28613c.41064,.3252,.93359,.48828,1.56934,.48828Z"/><path class="c" d="M56.21338,26.84863l-2.8252-9.27246h1.49707l2.00439,7.09961h.09668l1.97998-7.09961h1.52148l1.95557,7.0752h.09668l2.00439-7.0752h1.49707l-2.8252,9.27246h-1.40039l-2.02881-7.12402h-.14453l-2.02881,7.12402h-1.40039Z"/></g><g><path class="d" d="M85.92383,18.00195l-3.1709,8.57422h-1.33984l-3.17041-8.57422h1.42871l2.36719,6.83301h.08936l2.3667-6.83301h1.4292Z"/><path class="d" d="M87.64307,26.57617v-1.00488l3.77344-4.13086c.44287-.4834,.80762-.90527,1.09424-1.26465s.49951-.69727,.63916-1.01562,.20947-.65234,.20947-1.00195c0-.40234-.09619-.75-.2876-1.04395-.19189-.29395-.45312-.52148-.78418-.68164-.33154-.15918-.70361-.23926-1.1167-.23926-.43896,0-.82129,.08984-1.14697,.27051s-.57715,.43262-.75391,.75586c-.17676,.32422-.26514,.7041-.26514,1.13965h-1.31738c0-.66992,.1543-1.25781,.46338-1.76465,.30908-.50586,.73047-.90039,1.26465-1.18359,.53369-.28223,1.13379-.42383,1.80029-.42383,.66992,0,1.26318,.1416,1.78076,.42383,.51709,.2832,.92285,.66504,1.2168,1.14453,.29395,.48047,.44092,1.01465,.44092,1.60254,0,.41992-.0752,.83105-.22607,1.23047-.15088,.40039-.41113,.84473-.78125,1.33398-.37061,.49023-.8833,1.08594-1.53809,1.79004l-2.56787,2.74609v.08887h5.31445v1.22852h-7.2124Z"/><path class="d" d="M98.1377,26.66504c-.27539,0-.51172-.09766-.70898-.2959-.19727-.19629-.2959-.43262-.2959-.70801s.09863-.51172,.2959-.70898,.43359-.2959,.70898-.2959,.51172,.09863,.70898,.2959,.2959,.43359,.2959,.70898c0,.18164-.0459,.34961-.13672,.50195-.09131,.15234-.2124,.27441-.36279,.36523-.15088,.0918-.31934,.13672-.50537,.13672Z"/><path class="d" d="M104.83643,26.73242c-.65527,0-1.24512-.12988-1.77002-.39062-.52441-.26074-.94531-.61816-1.26123-1.07227-.31641-.4541-.48975-.9707-.51953-1.55176h1.33984c.05225,.51758,.2876,.94434,.70654,1.28125,.41846,.33691,.91992,.50488,1.50439,.50488,.46875,0,.88623-.10938,1.25293-.3291s.65527-.52148,.86523-.90723c.21045-.38477,.31543-.82129,.31543-1.30859,0-.49902-.10889-.94434-.32666-1.33691-.21729-.39258-.51611-.70312-.89551-.92969-.37988-.22656-.81348-.34277-1.30078-.3457-.3501-.00391-.70898,.04883-1.07764,.1582-.36816,.11035-.67188,.25098-.90967,.42188l-1.29541-.15625,.69238-5.62695h5.93945v1.22852h-4.77832l-.40186,3.37109h.06689c.23438-.18555,.52832-.33984,.88184-.46289s.72217-.18457,1.10547-.18457c.69971,0,1.32373,.16699,1.87305,.5,.54883,.33301,.98047,.78809,1.29492,1.36426,.31445,.57715,.47168,1.23633,.47168,1.97656,0,.72949-.1626,1.37988-.48828,1.95117s-.77344,1.02148-1.34277,1.35059-1.2168,.49414-1.94238,.49414Z"/><path class="d" d="M111.37891,26.66504c-.27539,0-.51172-.09766-.70898-.2959-.19727-.19629-.2959-.43262-.2959-.70801s.09863-.51172,.2959-.70898,.43359-.2959,.70898-.2959,.51172,.09863,.70898,.2959,.2959,.43359,.2959,.70898c0,.18164-.0459,.34961-.13672,.50195-.09131,.15234-.2124,.27441-.36279,.36523-.15088,.0918-.31934,.13672-.50537,.13672Z"/><path class="d" d="M118.05566,26.73242c-.84131,0-1.55762-.22949-2.14941-.68945s-1.04395-1.12793-1.35645-2.00391c-.3125-.87695-.46875-1.93652-.46875-3.17969,0-1.23535,.15723-2.29102,.47168-3.16797,.31445-.87598,.76855-1.5459,1.36182-2.00879,.59375-.46387,1.30713-.69531,2.14111-.69531,.8335,0,1.54688,.23145,2.14062,.69531,.59375,.46289,1.04785,1.13281,1.3623,2.00879,.31445,.87695,.47168,1.93262,.47168,3.16797,0,1.24316-.15625,2.30273-.46924,3.17969-.3125,.87598-.76465,1.54395-1.35645,2.00391s-1.30811,.68945-2.14893,.68945Zm0-1.22852c.8335,0,1.48096-.40137,1.94238-1.20508s.69238-1.9502,.69238-3.43945c0-.98926-.10498-1.83203-.31543-2.52832s-.51172-1.22656-.9043-1.59082c-.39258-.36523-.86426-.54688-1.41504-.54688-.82617,0-1.47217,.40625-1.93701,1.21973-.46533,.8125-.69775,1.96191-.69775,3.44629,0,.99023,.104,1.83105,.3125,2.52344s.50879,1.21875,.90137,1.58008,.86621,.54102,1.4209,.54102Z"/></g><rect class="b" width="134" height="43"/></svg>