<svg width="135" height="84" viewBox="0 0 135 84" fill="none" xmlns="http://www.w3.org/2000/svg">
<rect x="0.354951" y="0.354951" width="133.638" height="24.8875" rx="1.77475" fill="#21242C"/>
<path d="M18.0958 16.2987L15.5399 8.8127H14.0748L11.5081 16.2987H12.8984L13.508 14.331H16.1067L16.7162 16.2987H18.0958ZM14.4063 11.4007C14.5453 10.9302 14.6629 10.5345 14.7806 10.0746H14.802C14.9089 10.481 15.0693 11.0585 15.187 11.4007L15.7538 13.2081H13.8502L14.4063 11.4007ZM22.5297 13.9032C22.5297 15.1758 21.8666 15.4325 21.3747 15.4325C21.0646 15.4325 20.7758 15.4111 20.5298 15.1544C20.2625 14.8764 20.2625 14.4807 20.2625 14.0208V10.9516H18.9685V14.085C18.9685 14.7266 19.0006 15.3897 19.4283 15.8389C19.8133 16.2452 20.2839 16.427 20.9683 16.427C21.7062 16.427 22.2516 16.1062 22.5404 15.518V16.2987H23.7809V10.9516H22.5297V13.9032ZM28.9759 11.6039C28.6123 11.0906 28.0669 10.8232 27.3718 10.8232C25.9387 10.8232 24.9763 11.9354 24.9763 13.6251C24.9763 15.3683 25.9922 16.427 27.3932 16.427C28.099 16.427 28.6658 16.1276 28.9759 15.5394V16.2987H30.2378V8.8127H28.9759V11.6039ZM28.6016 15.1116C28.3877 15.3576 28.0776 15.4966 27.6819 15.4966C26.6446 15.4966 26.3558 14.855 26.3558 13.6251C26.3558 12.9942 26.4414 12.5129 26.6766 12.2028C26.8798 11.914 27.2114 11.7643 27.7033 11.7643C28.7193 11.7643 29.008 12.5664 29.008 13.6358C29.008 14.2989 28.8797 14.7908 28.6016 15.1116ZM32.6712 8.71645V10.1067H33.9652V8.71645H32.6712ZM33.9866 10.9516H31.8478V11.9675H32.714V15.2827H31.6766V16.2987H34.9384V15.2827H33.9866V10.9516ZM39.0631 16.3522C39.3518 16.3522 39.7154 16.3201 39.9721 16.2559L39.9507 15.1758C39.694 15.24 39.4374 15.2721 39.2235 15.2721C38.7208 15.2721 38.4856 15.1651 38.4856 14.748V11.9675H39.9828V10.9516H38.4856V9.46505H37.245V10.9516H36.1542V11.9675H37.245V14.8657C37.245 15.9565 37.8867 16.3522 39.0631 16.3522ZM48.1592 8.8127H46.031V9.82865H46.8972V15.2827H45.8492V16.2987H49.1109V15.2827H48.1592V8.8127ZM52.9469 16.427C54.5938 16.427 55.6739 15.3041 55.6739 13.6251C55.6739 12.0103 54.6259 10.8232 52.9469 10.8232C51.2465 10.8232 50.2198 11.9996 50.2198 13.6251C50.2198 15.3683 51.2358 16.427 52.9469 16.427ZM52.9469 15.4966C52.5084 15.4966 52.1876 15.379 51.9737 15.133C51.6956 14.8336 51.578 14.331 51.578 13.6251C51.578 12.9193 51.6956 12.4167 51.963 12.1172C52.1876 11.8713 52.5084 11.7536 52.9469 11.7536C53.396 11.7536 53.7168 11.882 53.9414 12.1386C54.1981 12.4488 54.3157 12.9407 54.3157 13.6251C54.3157 14.3096 54.2088 14.8015 53.9414 15.1116C53.7275 15.3683 53.4067 15.4966 52.9469 15.4966ZM60.5899 11.6574C60.2476 11.1334 59.7236 10.8232 58.975 10.8232C57.5848 10.8232 56.6009 11.9033 56.6009 13.4861C56.6009 15.1544 57.5634 16.2559 59.0071 16.2559C59.7343 16.2559 60.2476 15.9565 60.5899 15.4004V16.2132C60.5899 17.0901 60.1514 17.5606 59.3279 17.5606C58.6114 17.5606 58.1623 17.3254 58.1088 16.6088L56.8789 16.6944C56.9431 18.0098 58.0446 18.491 59.2745 18.491C60.8679 18.491 61.8625 17.6676 61.8625 16.2025V10.9516H60.5899V11.6574ZM60.2156 14.9512C60.0017 15.1865 59.7022 15.3148 59.2958 15.3148C58.312 15.3148 57.9804 14.7159 57.9804 13.4861C57.9804 12.8765 58.0767 12.4274 58.3334 12.1386C58.5472 11.8927 58.8681 11.7643 59.3172 11.7643C60.2049 11.7643 60.6326 12.3846 60.6326 13.4861C60.6326 14.0957 60.515 14.6197 60.2156 14.9512ZM65.5687 16.427C66.7451 16.427 67.868 16.0313 67.868 14.7373C67.868 13.4754 66.7237 13.2508 65.7184 13.0263C65.034 12.8765 64.5421 12.7482 64.5421 12.3311C64.5421 11.914 64.9805 11.7322 65.4511 11.7322C66.1248 11.7322 66.5312 12.0531 66.5633 12.7161L67.729 12.5236C67.6113 11.251 66.6168 10.8232 65.4511 10.8232C64.3817 10.8232 63.3443 11.2831 63.3443 12.4274C63.3443 13.5075 64.2533 13.8069 65.2051 14.0529C66.0072 14.2561 66.6702 14.3416 66.6702 14.8122C66.6702 15.2614 66.2959 15.518 65.5794 15.518C64.8736 15.518 64.3924 15.1544 64.3817 14.4593L63.1946 14.5983C63.2374 15.8816 64.3175 16.427 65.5687 16.427Z" fill="#EBEFF0"/>
<g clip-path="url(#clip0_360_18749)">
<path d="M117.31 9.95908L120.998 14.2185L113.621 14.2185L117.31 9.95908Z" fill="#C5C9D3"/>
</g>
<rect x="0.354951" y="0.354951" width="133.638" height="24.8875" rx="1.77475" stroke="#5CC3FF" stroke-width="0.709901"/>
<g clip-path="url(#clip1_360_18749)">
<rect y="28.4414" width="134.347" height="54.75" rx="2.13312" fill="#2A2E37"/>
<mask id="path-6-inside-1_360_18749" fill="white">
<path d="M0 28.4414H134.347V57.8181H0V28.4414Z"/>
</mask>
<path d="M0 28.4414H134.347V57.8181H0V28.4414Z" fill="#2A2E37"/>
<path d="M12.0908 46.1298V38.8901H13.4023V45.0304H16.5908V46.1298H12.0908ZM20.3965 46.2358C19.8663 46.2358 19.4067 46.1192 19.0179 45.8858C18.629 45.6525 18.3274 45.3261 18.1129 44.9067C17.9008 44.4872 17.7947 43.997 17.7947 43.4361C17.7947 42.8752 17.9008 42.3838 18.1129 41.962C18.3274 41.5402 18.629 41.2126 19.0179 40.9793C19.4067 40.746 19.8663 40.6293 20.3965 40.6293C20.9268 40.6293 21.3863 40.746 21.7751 40.9793C22.164 41.2126 22.4645 41.5402 22.6766 41.962C22.891 42.3838 22.9983 42.8752 22.9983 43.4361C22.9983 43.997 22.891 44.4872 22.6766 44.9067C22.4645 45.3261 22.164 45.6525 21.7751 45.8858C21.3863 46.1192 20.9268 46.2358 20.3965 46.2358ZM20.4036 45.2107C20.6911 45.2107 20.9315 45.1317 21.1247 44.9738C21.318 44.8136 21.4617 44.5991 21.556 44.3304C21.6526 44.0618 21.7009 43.7625 21.7009 43.4326C21.7009 43.1003 21.6526 42.7998 21.556 42.5311C21.4617 42.2601 21.318 42.0445 21.1247 41.8842C20.9315 41.724 20.6911 41.6439 20.4036 41.6439C20.109 41.6439 19.8639 41.724 19.6683 41.8842C19.475 42.0445 19.3301 42.2601 19.2335 42.5311C19.1392 42.7998 19.0921 43.1003 19.0921 43.4326C19.0921 43.7625 19.1392 44.0618 19.2335 44.3304C19.3301 44.5991 19.475 44.8136 19.6683 44.9738C19.8639 45.1317 20.109 45.2107 20.4036 45.2107ZM26.8013 48.279C26.3417 48.279 25.947 48.2166 25.6171 48.0917C25.2871 47.9691 25.022 47.8042 24.8217 47.5968C24.6214 47.3894 24.4823 47.1596 24.4046 46.9075L25.557 46.6282C25.6088 46.7342 25.6842 46.8391 25.7832 46.9428C25.8822 47.0489 26.0153 47.1361 26.1827 47.2044C26.3523 47.2751 26.5656 47.3104 26.8225 47.3104C27.1854 47.3104 27.4859 47.2221 27.7239 47.0453C27.9619 46.8709 28.0809 46.5834 28.0809 46.1828V45.1541H28.0173C27.9513 45.2861 27.8547 45.4216 27.7275 45.5606C27.6025 45.6997 27.4364 45.8163 27.229 45.9106C27.024 46.0049 26.7659 46.052 26.4549 46.052C26.0377 46.052 25.6595 45.9542 25.3201 45.7586C24.9831 45.5606 24.7145 45.266 24.5141 44.8748C24.3162 44.4813 24.2172 43.9887 24.2172 43.3972C24.2172 42.801 24.3162 42.2978 24.5141 41.8878C24.7145 41.4754 24.9843 41.1631 25.3237 40.951C25.663 40.7365 26.0413 40.6293 26.4584 40.6293C26.7765 40.6293 27.0381 40.6835 27.2432 40.7919C27.4505 40.898 27.6155 41.0264 27.7381 41.1772C27.8606 41.3257 27.9537 41.4659 28.0173 41.5979H28.088V40.7H29.35V46.2181C29.35 46.6824 29.2392 47.0665 29.0177 47.3705C28.7962 47.6746 28.4934 47.902 28.1092 48.0528C27.7251 48.2036 27.2891 48.279 26.8013 48.279ZM26.8119 45.0481C27.0829 45.0481 27.3139 44.9821 27.5047 44.8501C27.6956 44.7181 27.8406 44.5284 27.9395 44.281C28.0385 44.0335 28.088 43.7366 28.088 43.3901C28.088 43.0484 28.0385 42.7491 27.9395 42.4923C27.8429 42.2354 27.6992 42.0362 27.5083 41.8948C27.3197 41.7511 27.0876 41.6792 26.8119 41.6792C26.5267 41.6792 26.2887 41.7534 26.0978 41.9019C25.9069 42.0504 25.7632 42.2542 25.6665 42.5135C25.5699 42.7703 25.5216 43.0626 25.5216 43.3901C25.5216 43.7224 25.5699 44.0135 25.6665 44.2633C25.7655 44.5107 25.9105 44.704 26.1014 44.843C26.2946 44.9797 26.5314 45.0481 26.8119 45.0481ZM31.017 46.1298V40.7H32.2967V46.1298H31.017ZM31.6604 39.9294C31.4577 39.9294 31.2833 39.8622 31.1372 39.7279C30.9911 39.5912 30.918 39.4274 30.918 39.2365C30.918 39.0433 30.9911 38.8795 31.1372 38.7452C31.2833 38.6085 31.4577 38.5401 31.6604 38.5401C31.8654 38.5401 32.0398 38.6085 32.1836 38.7452C32.3297 38.8795 32.4027 39.0433 32.4027 39.2365C32.4027 39.4274 32.3297 39.5912 32.1836 39.7279C32.0398 39.8622 31.8654 39.9294 31.6604 39.9294ZM35.2478 42.9483V46.1298H33.9681V40.7H35.1912V41.6226H35.2548C35.3797 41.3186 35.5789 41.0771 35.8523 40.898C36.128 40.7189 36.4685 40.6293 36.8739 40.6293C37.2486 40.6293 37.575 40.7094 37.8531 40.8697C38.1335 41.0299 38.3503 41.2621 38.5035 41.5661C38.659 41.8701 38.7356 42.2389 38.7333 42.6725V46.1298H37.4536V42.8705C37.4536 42.5076 37.3593 42.2236 37.1708 42.0186C36.9846 41.8135 36.7266 41.711 36.3966 41.711C36.1728 41.711 35.9736 41.7605 35.7992 41.8595C35.6272 41.9561 35.4917 42.0963 35.3927 42.2802C35.2961 42.464 35.2478 42.6867 35.2478 42.9483ZM44.6812 42.1352L43.5146 42.2625C43.4816 42.1446 43.4239 42.0339 43.3414 41.9302C43.2613 41.8265 43.1529 41.7428 43.0162 41.6792C42.8795 41.6156 42.7122 41.5838 42.5142 41.5838C42.2479 41.5838 42.024 41.6415 41.8426 41.757C41.6635 41.8724 41.5751 42.0221 41.5774 42.2059C41.5751 42.3638 41.6328 42.4923 41.7506 42.5912C41.8708 42.6902 42.0688 42.7715 42.3445 42.8351L43.2707 43.0331C43.7844 43.1439 44.1662 43.3194 44.416 43.5598C44.6682 43.8002 44.7955 44.1148 44.7978 44.5037C44.7955 44.8454 44.6953 45.147 44.4973 45.4086C44.3017 45.6679 44.0295 45.8705 43.6808 46.0166C43.332 46.1628 42.9313 46.2358 42.4789 46.2358C41.8143 46.2358 41.2793 46.0968 40.874 45.8187C40.4686 45.5382 40.2271 45.1482 40.1493 44.6486L41.3971 44.5284C41.4537 44.7735 41.5739 44.9585 41.7577 45.0834C41.9415 45.2083 42.1807 45.2708 42.4753 45.2708C42.7793 45.2708 43.0232 45.2083 43.2071 45.0834C43.3932 44.9585 43.4863 44.8041 43.4863 44.6203C43.4863 44.4648 43.4262 44.3363 43.306 44.235C43.1882 44.1337 43.0044 44.0559 42.7546 44.0017L41.8284 43.8073C41.3076 43.6989 40.9223 43.5162 40.6725 43.2593C40.4227 43.0001 40.2989 42.6725 40.3013 42.2766C40.2989 41.942 40.3897 41.6521 40.5735 41.407C40.7597 41.1596 41.0177 40.9687 41.3477 40.8343C41.6799 40.6977 42.0629 40.6293 42.4965 40.6293C43.1328 40.6293 43.6336 40.7648 43.9989 41.0358C44.3665 41.3068 44.594 41.6733 44.6812 42.1352Z" fill="#C5C9D3"/>
<path d="M134.347 57.107H0V58.5291H134.347V57.107Z" fill="#383D47" mask="url(#path-6-inside-1_360_18749)"/>
<mask id="path-9-inside-2_360_18749" fill="white">
<path d="M0 57.8181H134.347V87.1947H0V57.8181Z"/>
</mask>
<path d="M0 57.8181H134.347V87.1947H0V57.8181Z" fill="#2A2E37"/>
<path d="M16.9408 70.5786C16.8819 70.3877 16.8006 70.2168 16.6969 70.066C16.5955 69.9128 16.473 69.782 16.3292 69.6736C16.1878 69.5652 16.0252 69.4839 15.8414 69.4297C15.6576 69.3732 15.4573 69.3449 15.2405 69.3449C14.8516 69.3449 14.5052 69.4427 14.2012 69.6383C13.8972 69.8339 13.658 70.1214 13.4836 70.5008C13.3115 70.8779 13.2255 71.3374 13.2255 71.8795C13.2255 72.4262 13.3115 72.8893 13.4836 73.2687C13.6556 73.6481 13.8948 73.9368 14.2012 74.1348C14.5075 74.3304 14.8634 74.4282 15.2687 74.4282C15.6364 74.4282 15.9545 74.3575 16.2232 74.2161C16.4942 74.0747 16.7028 73.8744 16.8489 73.6152C16.995 73.3536 17.0681 73.0472 17.0681 72.6961L17.365 72.742H15.3995V71.7169H18.3371V72.5865C18.3371 73.2063 18.2051 73.7424 17.9412 74.1949C17.6772 74.6474 17.3143 74.9962 16.8524 75.2413C16.3905 75.484 15.8603 75.6054 15.2617 75.6054C14.5947 75.6054 14.0091 75.4557 13.5048 75.1564C13.0028 74.8548 12.6104 74.427 12.3276 73.8732C12.0472 73.317 11.907 72.6572 11.907 71.8936C11.907 71.3092 11.9894 70.7872 12.1544 70.3276C12.3217 69.8681 12.555 69.478 12.8543 69.1575C13.1536 68.8347 13.5048 68.5896 13.9078 68.4222C14.3108 68.2526 14.7491 68.1677 15.2228 68.1677C15.6234 68.1677 15.9969 68.2266 16.3434 68.3445C16.6898 68.46 16.9974 68.6249 17.266 68.8394C17.537 69.0538 17.7597 69.3084 17.9341 69.6029C18.1085 69.8975 18.2228 70.2227 18.277 70.5786H16.9408ZM22.308 75.6124C21.7637 75.6124 21.2935 75.4993 20.8976 75.2731C20.504 75.0445 20.2012 74.7216 19.9891 74.3045C19.777 73.885 19.6709 73.3913 19.6709 72.8233C19.6709 72.2648 19.777 71.7746 19.9891 71.3528C20.2035 70.9286 20.5028 70.5986 20.887 70.363C21.2711 70.1249 21.7224 70.0059 22.2409 70.0059C22.5755 70.0059 22.8913 70.0601 23.1883 70.1685C23.4876 70.2746 23.7515 70.4396 23.9801 70.6634C24.2111 70.8873 24.3925 71.1725 24.5245 71.5189C24.6565 71.863 24.7225 72.273 24.7225 72.7491V73.1415H20.2719V72.2789H23.4958C23.4935 72.0338 23.4404 71.8158 23.3367 71.625C23.233 71.4317 23.0881 71.2797 22.9019 71.1689C22.7181 71.0582 22.5037 71.0028 22.2586 71.0028C21.997 71.0028 21.7672 71.0664 21.5692 71.1937C21.3713 71.3186 21.2169 71.4836 21.1062 71.6886C20.9977 71.8913 20.9424 72.114 20.94 72.3567V73.1097C20.94 73.4254 20.9977 73.6965 21.1132 73.9227C21.2287 74.1466 21.3901 74.3186 21.5975 74.4388C21.8049 74.5566 22.0476 74.6156 22.3257 74.6156C22.5119 74.6156 22.6804 74.5896 22.8312 74.5378C22.9821 74.4836 23.1129 74.4046 23.2236 74.3009C23.3344 74.1973 23.418 74.0688 23.4746 73.9156L24.6694 74.05C24.594 74.3658 24.4503 74.6415 24.2382 74.8771C24.0284 75.1105 23.7598 75.2919 23.4322 75.4215C23.1046 75.5488 22.7299 75.6124 22.308 75.6124ZM28.529 75.6124C27.9988 75.6124 27.5392 75.4958 27.1504 75.2625C26.7615 75.0292 26.4599 74.7028 26.2454 74.2833C26.0333 73.8638 25.9273 73.3736 25.9273 72.8127C25.9273 72.2518 26.0333 71.7605 26.2454 71.3386C26.4599 70.9168 26.7615 70.5892 27.1504 70.3559C27.5392 70.1226 27.9988 70.0059 28.529 70.0059C29.0593 70.0059 29.5188 70.1226 29.9077 70.3559C30.2965 70.5892 30.597 70.9168 30.8091 71.3386C31.0235 71.7605 31.1308 72.2518 31.1308 72.8127C31.1308 73.3736 31.0235 73.8638 30.8091 74.2833C30.597 74.7028 30.2965 75.0292 29.9077 75.2625C29.5188 75.4958 29.0593 75.6124 28.529 75.6124ZM28.5361 74.5873C28.8236 74.5873 29.064 74.5083 29.2572 74.3504C29.4505 74.1902 29.5942 73.9757 29.6885 73.7071C29.7851 73.4384 29.8334 73.1391 29.8334 72.8092C29.8334 72.4769 29.7851 72.1764 29.6885 71.9078C29.5942 71.6367 29.4505 71.4211 29.2572 71.2608C29.064 71.1006 28.8236 71.0205 28.5361 71.0205C28.2415 71.0205 27.9964 71.1006 27.8008 71.2608C27.6076 71.4211 27.4626 71.6367 27.366 71.9078C27.2717 72.1764 27.2246 72.4769 27.2246 72.8092C27.2246 73.1391 27.2717 73.4384 27.366 73.7071C27.4626 73.9757 27.6076 74.1902 27.8008 74.3504C27.9964 74.5083 28.2415 74.5873 28.5361 74.5873ZM34.5874 75.6018C34.1608 75.6018 33.779 75.4922 33.442 75.2731C33.105 75.0539 32.8387 74.7357 32.6431 74.3186C32.4475 73.9015 32.3497 73.3948 32.3497 72.7986C32.3497 72.1953 32.4487 71.6862 32.6466 71.2715C32.847 70.8543 33.1168 70.5397 33.4562 70.3276C33.7955 70.1132 34.1738 70.0059 34.5909 70.0059C34.909 70.0059 35.1706 70.0601 35.3757 70.1685C35.5807 70.2746 35.7433 70.403 35.8635 70.5539C35.9837 70.7023 36.0768 70.8425 36.1428 70.9745H36.1958V68.2667H37.479V75.5064H36.2205V74.6509H36.1428C36.0768 74.7829 35.9813 74.9231 35.8564 75.0716C35.7315 75.2177 35.5666 75.3426 35.3615 75.4463C35.1565 75.55 34.8984 75.6018 34.5874 75.6018ZM34.9444 74.5519C35.2154 74.5519 35.4464 74.4789 35.6373 74.3328C35.8281 74.1843 35.9731 73.9781 36.0721 73.7141C36.171 73.4502 36.2205 73.1426 36.2205 72.7915C36.2205 72.4404 36.171 72.1352 36.0721 71.8759C35.9754 71.6167 35.8317 71.4152 35.6408 71.2715C35.4523 71.1277 35.2201 71.0558 34.9444 71.0558C34.6592 71.0558 34.4212 71.1301 34.2303 71.2785C34.0394 71.427 33.8957 71.632 33.7991 71.8936C33.7024 72.1552 33.6541 72.4545 33.6541 72.7915C33.6541 73.1309 33.7024 73.4337 33.7991 73.7C33.898 73.9639 34.043 74.1725 34.2339 74.3257C34.4271 74.4765 34.664 74.5519 34.9444 74.5519ZM39.1981 75.5064V70.0766H40.4778V75.5064H39.1981ZM39.8415 69.306C39.6388 69.306 39.4644 69.2388 39.3183 69.1045C39.1722 68.9678 39.0992 68.804 39.0992 68.6131C39.0992 68.4199 39.1722 68.2561 39.3183 68.1218C39.4644 67.9851 39.6388 67.9167 39.8415 67.9167C40.0465 67.9167 40.2209 67.9851 40.3647 68.1218C40.5108 68.2561 40.5838 68.4199 40.5838 68.6131C40.5838 68.804 40.5108 68.9678 40.3647 69.1045C40.2209 69.2388 40.0465 69.306 39.8415 69.306ZM46.4407 71.5118L45.2742 71.6391C45.2412 71.5213 45.1834 71.4105 45.1009 71.3068C45.0208 71.2031 44.9124 71.1194 44.7757 71.0558C44.639 70.9922 44.4717 70.9604 44.2738 70.9604C44.0074 70.9604 43.7836 71.0181 43.6021 71.1336C43.423 71.2491 43.3346 71.3987 43.337 71.5825C43.3346 71.7404 43.3924 71.8689 43.5102 71.9678C43.6304 72.0668 43.8283 72.1481 44.1041 72.2118L45.0302 72.4097C45.544 72.5205 45.9258 72.6961 46.1756 72.9364C46.4277 73.1768 46.555 73.4914 46.5574 73.8803C46.555 74.222 46.4548 74.5236 46.2569 74.7852C46.0613 75.0445 45.7891 75.2471 45.4403 75.3933C45.0915 75.5394 44.6909 75.6124 44.2384 75.6124C43.5738 75.6124 43.0389 75.4734 42.6335 75.1953C42.2282 74.9149 41.9866 74.5248 41.9088 74.0252L43.1567 73.905C43.2133 74.1501 43.3334 74.3351 43.5173 74.46C43.7011 74.5849 43.9403 74.6474 44.2349 74.6474C44.5389 74.6474 44.7828 74.5849 44.9666 74.46C45.1528 74.3351 45.2459 74.1808 45.2459 73.9969C45.2459 73.8414 45.1858 73.713 45.0656 73.6116C44.9478 73.5103 44.7639 73.4325 44.5141 73.3783L43.588 73.1839C43.0671 73.0755 42.6818 72.8928 42.432 72.636C42.1822 72.3767 42.0585 72.0492 42.0608 71.6532C42.0585 71.3186 42.1492 71.0287 42.333 70.7836C42.5192 70.5362 42.7773 70.3453 43.1072 70.211C43.4395 70.0743 43.8225 70.0059 44.2561 70.0059C44.8924 70.0059 45.3932 70.1414 45.7584 70.4125C46.1261 70.6835 46.3535 71.0499 46.4407 71.5118ZM50.6794 70.0766V71.0664H47.558V70.0766H50.6794ZM48.3286 68.7757H49.6083V73.8732C49.6083 74.0452 49.6342 74.1772 49.6861 74.2691C49.7403 74.3587 49.811 74.42 49.8982 74.4529C49.9854 74.4859 50.082 74.5024 50.1881 74.5024C50.2682 74.5024 50.3412 74.4965 50.4072 74.4848C50.4756 74.473 50.5274 74.4624 50.5628 74.4529L50.7784 75.4534C50.7101 75.4769 50.6123 75.5028 50.485 75.5311C50.3601 75.5594 50.2069 75.5759 50.0254 75.5806C49.7049 75.59 49.4162 75.5417 49.1594 75.4357C48.9025 75.3273 48.6986 75.1599 48.5478 74.9337C48.3993 74.7075 48.3263 74.4247 48.3286 74.0853V68.7757ZM52.1052 75.5064V70.0766H53.3459V70.9816H53.4025C53.5015 70.6681 53.6712 70.4266 53.9115 70.2569C54.1543 70.0849 54.4312 69.9989 54.7423 69.9989C54.813 69.9989 54.8919 70.0024 54.9791 70.0095C55.0687 70.0142 55.1429 70.0224 55.2018 70.0342V71.2114C55.1476 71.1925 55.0616 71.176 54.9438 71.1619C54.8283 71.1454 54.7163 71.1371 54.6079 71.1371C54.3746 71.1371 54.1649 71.1878 53.9787 71.2891C53.7949 71.3881 53.6499 71.526 53.5439 71.7027C53.4378 71.8795 53.3848 72.0833 53.3848 72.3143V75.5064H52.1052ZM56.4075 75.5064V70.0766H57.6872V75.5064H56.4075ZM57.0509 69.306C56.8482 69.306 56.6738 69.2388 56.5277 69.1045C56.3816 68.9678 56.3085 68.804 56.3085 68.6131C56.3085 68.4199 56.3816 68.2561 56.5277 68.1218C56.6738 67.9851 56.8482 67.9167 57.0509 67.9167C57.2559 67.9167 57.4303 67.9851 57.574 68.1218C57.7202 68.2561 57.7932 68.4199 57.7932 68.6131C57.7932 68.804 57.7202 68.9678 57.574 69.1045C57.4303 69.2388 57.2559 69.306 57.0509 69.306ZM59.4151 75.5064V68.2667H60.6948V70.9745H60.7478C60.8138 70.8425 60.9069 70.7023 61.0271 70.5539C61.1473 70.403 61.3099 70.2746 61.5149 70.1685C61.72 70.0601 61.9816 70.0059 62.2997 70.0059C62.7192 70.0059 63.0974 70.1132 63.4344 70.3276C63.7738 70.5397 64.0425 70.8543 64.2404 71.2715C64.4407 71.6862 64.5409 72.1953 64.5409 72.7986C64.5409 73.3948 64.4431 73.9015 64.2475 74.3186C64.0519 74.7357 63.7856 75.0539 63.4486 75.2731C63.1116 75.4922 62.7298 75.6018 62.3032 75.6018C61.9922 75.6018 61.7341 75.55 61.5291 75.4463C61.324 75.3426 61.1591 75.2177 61.0342 75.0716C60.9116 74.9231 60.8162 74.7829 60.7478 74.6509H60.6736V75.5064H59.4151ZM60.6701 72.7915C60.6701 73.1426 60.7196 73.4502 60.8185 73.7141C60.9199 73.9781 61.0648 74.1843 61.2533 74.3328C61.4442 74.4789 61.6752 74.5519 61.9462 74.5519C62.229 74.5519 62.4658 74.4765 62.6567 74.3257C62.8476 74.1725 62.9914 73.9639 63.088 73.7C63.187 73.4337 63.2365 73.1309 63.2365 72.7915C63.2365 72.4545 63.1882 72.1552 63.0915 71.8936C62.9949 71.632 62.8512 71.427 62.6603 71.2785C62.4694 71.1301 62.2314 71.0558 61.9462 71.0558C61.6728 71.0558 61.4407 71.1277 61.2498 71.2715C61.0589 71.4152 60.914 71.6167 60.815 71.8759C60.7184 72.1352 60.6701 72.4404 60.6701 72.7915ZM69.4451 73.2228V70.0766H70.7247V75.5064H69.4839V74.5413H69.4274C69.3048 74.8453 69.1033 75.094 68.8229 75.2872C68.5448 75.4805 68.2019 75.5771 67.7942 75.5771C67.4384 75.5771 67.1237 75.4981 66.8504 75.3402C66.5794 75.18 66.3673 74.9478 66.2141 74.6438C66.0609 74.3375 65.9843 73.9675 65.9843 73.5339V70.0766H67.264V73.3359C67.264 73.68 67.3582 73.9533 67.5468 74.156C67.7353 74.3587 67.9828 74.46 68.2891 74.46C68.4777 74.46 68.6603 74.4141 68.837 74.3222C69.0138 74.2302 69.1587 74.0936 69.2718 73.9121C69.3873 73.7283 69.4451 73.4985 69.4451 73.2228ZM75.1075 70.0766V71.0664H71.9861V70.0766H75.1075ZM72.7567 68.7757H74.0364V73.8732C74.0364 74.0452 74.0623 74.1772 74.1142 74.2691C74.1684 74.3587 74.2391 74.42 74.3263 74.4529C74.4135 74.4859 74.5101 74.5024 74.6161 74.5024C74.6963 74.5024 74.7693 74.4965 74.8353 74.4848C74.9036 74.473 74.9555 74.4624 74.9908 74.4529L75.2065 75.4534C75.1381 75.4769 75.0403 75.5028 74.9131 75.5311C74.7882 75.5594 74.635 75.5759 74.4535 75.5806C74.133 75.59 73.8443 75.5417 73.5874 75.4357C73.3306 75.3273 73.1267 75.1599 72.9759 74.9337C72.8274 74.7075 72.7544 74.4247 72.7567 74.0853V68.7757ZM76.5332 75.5064V70.0766H77.8129V75.5064H76.5332ZM77.1766 69.306C76.9739 69.306 76.7995 69.2388 76.6534 69.1045C76.5073 68.9678 76.4343 68.804 76.4343 68.6131C76.4343 68.4199 76.5073 68.2561 76.6534 68.1218C76.7995 67.9851 76.9739 67.9167 77.1766 67.9167C77.3816 67.9167 77.556 67.9851 77.6998 68.1218C77.8459 68.2561 77.919 68.4199 77.919 68.6131C77.919 68.804 77.8459 68.9678 77.6998 69.1045C77.556 69.2388 77.3816 69.306 77.1766 69.306ZM81.8528 75.6124C81.3225 75.6124 80.863 75.4958 80.4741 75.2625C80.0853 75.0292 79.7836 74.7028 79.5692 74.2833C79.3571 73.8638 79.251 73.3736 79.251 72.8127C79.251 72.2518 79.3571 71.7605 79.5692 71.3386C79.7836 70.9168 80.0853 70.5892 80.4741 70.3559C80.863 70.1226 81.3225 70.0059 81.8528 70.0059C82.383 70.0059 82.8426 70.1226 83.2314 70.3559C83.6203 70.5892 83.9207 70.9168 84.1328 71.3386C84.3473 71.7605 84.4545 72.2518 84.4545 72.8127C84.4545 73.3736 84.3473 73.8638 84.1328 74.2833C83.9207 74.7028 83.6203 75.0292 83.2314 75.2625C82.8426 75.4958 82.383 75.6124 81.8528 75.6124ZM81.8598 74.5873C82.1474 74.5873 82.3877 74.5083 82.581 74.3504C82.7742 74.1902 82.918 73.9757 83.0122 73.7071C83.1089 73.4384 83.1572 73.1391 83.1572 72.8092C83.1572 72.4769 83.1089 72.1764 83.0122 71.9078C82.918 71.6367 82.7742 71.4211 82.581 71.2608C82.3877 71.1006 82.1474 71.0205 81.8598 71.0205C81.5653 71.0205 81.3202 71.1006 81.1246 71.2608C80.9313 71.4211 80.7864 71.6367 80.6898 71.9078C80.5955 72.1764 80.5484 72.4769 80.5484 72.8092C80.5484 73.1391 80.5955 73.4384 80.6898 73.7071C80.7864 73.9757 80.9313 74.1902 81.1246 74.3504C81.3202 74.5083 81.5653 74.5873 81.8598 74.5873ZM87.1758 72.3249V75.5064H85.8962V70.0766H87.1193V70.9993H87.1829C87.3078 70.6952 87.507 70.4537 87.7803 70.2746C88.0561 70.0955 88.3966 70.0059 88.8019 70.0059C89.1766 70.0059 89.503 70.0861 89.7811 70.2463C90.0616 70.4066 90.2784 70.6387 90.4316 70.9427C90.5871 71.2467 90.6637 71.6155 90.6613 72.0492V75.5064H89.3817V72.2471C89.3817 71.8842 89.2874 71.6002 89.0989 71.3952C88.9127 71.1901 88.6546 71.0876 88.3247 71.0876C88.1008 71.0876 87.9017 71.1371 87.7273 71.2361C87.5553 71.3327 87.4198 71.4729 87.3208 71.6568C87.2242 71.8406 87.1758 72.0633 87.1758 72.3249Z" fill="#C5C9D3"/>
<path d="M134.347 86.4836H0V87.9057H134.347V86.4836Z" fill="#383D47" mask="url(#path-9-inside-2_360_18749)"/>
</g>
<rect x="0.35552" y="28.797" width="133.636" height="54.039" rx="1.7776" stroke="#383D47" stroke-width="0.711039"/>
<defs>
<clipPath id="clip0_360_18749">
<rect width="11.3584" height="11.3584" fill="white" transform="translate(122.989 18.4779) rotate(-180)"/>
</clipPath>
<clipPath id="clip1_360_18749">
<rect y="28.4414" width="134.347" height="54.75" rx="2.13312" fill="white"/>
</clipPath>
</defs>
</svg>
