<svg width="135" height="22" viewBox="0 0 135 22" fill="none" xmlns="http://www.w3.org/2000/svg">
<rect x="0.300325" y="0.300325" width="133.945" height="21.0227" rx="1.50162" fill="#21242C"/>
<path d="M14.4784 13.3117L12.6506 10.4705L14.4241 8.78745H13.0397L11.4291 10.4343V6.97776H10.3523V13.3117H11.4291V11.6287L11.9268 11.1582L13.2478 13.3117H14.4784ZM18.6168 9.93661C19.1055 9.7104 19.4312 9.29417 19.4312 8.64268C19.4312 7.77402 18.843 7.0049 17.4586 7.0049C16.0652 7.0049 15.468 7.77402 15.468 8.64268C15.468 9.29417 15.7847 9.7104 16.2914 9.94566C15.5585 10.1628 15.2146 10.6786 15.2146 11.5201C15.2146 12.6964 16.0833 13.4203 17.4496 13.4203C18.7345 13.4203 19.6846 12.7597 19.6846 11.5201C19.6846 10.6876 19.3679 10.1538 18.6168 9.93661ZM17.4496 7.85546C18.0558 7.85546 18.3635 8.18121 18.3635 8.72411C18.3635 9.23988 18.0468 9.60182 17.4496 9.60182C16.8433 9.60182 16.5357 9.23988 16.5357 8.72411C16.5357 8.19025 16.8252 7.85546 17.4496 7.85546ZM17.4496 12.5697C16.7348 12.5697 16.3095 12.1444 16.3095 11.4749C16.3095 10.8143 16.7619 10.4343 17.4496 10.4343C18.1735 10.4343 18.5897 10.8415 18.5897 11.4749C18.5897 12.1444 18.1735 12.5697 17.4496 12.5697ZM22.686 13.4203C23.6813 13.4203 24.6314 13.0855 24.6314 11.9906C24.6314 10.9229 23.6632 10.7329 22.8126 10.5429C22.2335 10.4162 21.8173 10.3076 21.8173 9.95471C21.8173 9.60182 22.1883 9.44799 22.5864 9.44799C23.1565 9.44799 23.5003 9.71945 23.5275 10.2805L24.5138 10.1176C24.4142 9.04081 23.5727 8.67887 22.5864 8.67887C21.6816 8.67887 20.8039 9.06796 20.8039 10.0361C20.8039 10.95 21.573 11.2034 22.3783 11.4115C23.057 11.5834 23.618 11.6558 23.618 12.054C23.618 12.434 23.3013 12.6512 22.695 12.6512C22.0978 12.6512 21.6906 12.3435 21.6816 11.7554L20.6772 11.873C20.7134 12.9588 21.6273 13.4203 22.686 13.4203ZM28.4011 13.4203C29.677 13.4203 30.5456 12.7416 30.989 11.6287L29.8217 11.321C29.6136 12.0178 29.1793 12.5064 28.4011 12.5064C27.8401 12.5064 27.442 12.3254 27.1796 11.9544C26.8991 11.5653 26.7815 10.9862 26.7815 10.1447C26.7815 9.31227 26.8991 8.69697 27.1977 8.29884C27.4691 7.92785 27.8763 7.78307 28.4102 7.78307C29.2064 7.78307 29.6498 8.28074 29.8036 9.06796L30.9528 8.84174C30.6271 7.54781 29.6589 6.86918 28.4011 6.86918C26.6276 6.86918 25.578 8.16311 25.578 10.1447C25.578 12.3073 26.6457 13.4203 28.4011 13.4203ZM33.7845 6.97776H31.9838V7.83736H32.7168V12.4521H31.83V13.3117H34.5898V12.4521H33.7845V6.97776ZM38.7764 11.2848C38.7764 12.3616 38.2154 12.5788 37.7992 12.5788C37.5368 12.5788 37.2925 12.5607 37.0843 12.3435C36.8581 12.1082 36.8581 11.7735 36.8581 11.3844V8.78745H35.7633V11.4387C35.7633 11.9816 35.7904 12.5426 36.1524 12.9226C36.4781 13.2664 36.8762 13.4203 37.4553 13.4203C38.0797 13.4203 38.5412 13.1488 38.7855 12.6512V13.3117H39.8351V8.78745H38.7764V11.2848ZM43.0362 13.4203C44.0315 13.4203 44.9816 13.0855 44.9816 11.9906C44.9816 10.9229 44.0134 10.7329 43.1629 10.5429C42.5838 10.4162 42.1675 10.3076 42.1675 9.95471C42.1675 9.60182 42.5385 9.44799 42.9367 9.44799C43.5067 9.44799 43.8506 9.71945 43.8777 10.2805L44.864 10.1176C44.7645 9.04081 43.9229 8.67887 42.9367 8.67887C42.0318 8.67887 41.1541 9.06796 41.1541 10.0361C41.1541 10.95 41.9232 11.2034 42.7285 11.4115C43.4072 11.5834 43.9682 11.6558 43.9682 12.054C43.9682 12.434 43.6515 12.6512 43.0452 12.6512C42.448 12.6512 42.0409 12.3435 42.0318 11.7554L41.0274 11.873C41.0636 12.9588 41.9775 13.4203 43.0362 13.4203ZM48.4444 13.3569C48.6887 13.3569 48.9963 13.3298 49.2135 13.2755L49.1954 12.3616C48.9782 12.4159 48.761 12.443 48.5801 12.443C48.1548 12.443 47.9557 12.3526 47.9557 11.9997V9.64706H49.2225V8.78745H47.9557V7.52972H46.9061V8.78745H45.9832V9.64706H46.9061V12.0992C46.9061 13.0221 47.449 13.3569 48.4444 13.3569ZM54.1866 9.4299C53.8066 8.95033 53.2003 8.67887 52.4855 8.67887C51.7978 8.67887 51.2549 8.89604 50.8568 9.31227C50.4496 9.74659 50.2505 10.3438 50.2505 11.0405C50.2505 11.7735 50.4405 12.3706 50.8568 12.7959C51.2458 13.1941 51.7888 13.4203 52.4945 13.4203C53.6527 13.4203 54.3947 12.9045 54.63 11.8639L53.5894 11.7825C53.4899 12.3345 53.146 12.615 52.4855 12.615C51.7345 12.615 51.3544 12.1897 51.3363 11.3482H54.7024C54.7295 10.57 54.5485 9.88232 54.1866 9.4299ZM52.4855 9.48419C52.8836 9.48419 53.1551 9.59277 53.3541 9.83708C53.508 10.0271 53.5894 10.2895 53.6075 10.5429H51.3454C51.3635 10.3257 51.4268 10.0814 51.5716 9.88232C51.7526 9.62896 52.0602 9.48419 52.4855 9.48419ZM58.7639 8.68792C57.9315 8.76031 57.4157 9.14939 57.2438 9.6742V8.78745H56.1851V13.3117H57.2528V11.2758C57.2528 10.009 57.8681 9.64706 58.8273 9.64706C58.9358 9.64706 59.0354 9.64706 59.1711 9.65611L59.1983 8.67887C59.0535 8.67887 58.8635 8.67887 58.7639 8.68792Z" fill="#EBEFF0"/>
<rect x="70.456" y="4.83564" width="37.1599" height="11.9521" rx="1.5767" fill="#2A2E37"/>
<path d="M75.6707 12.8117V7.56966H76.3054V9.904H79.1005V7.56966H79.7353V12.8117H79.1005V10.4671H76.3054V12.8117H75.6707ZM82.8729 12.8936C82.4941 12.8936 82.1673 12.81 81.8926 12.6428C81.6196 12.4738 81.4088 12.2383 81.2604 11.9363C81.1136 11.6326 81.0402 11.2794 81.0402 10.8766C81.0402 10.4739 81.1136 10.119 81.2604 9.81186C81.4088 9.503 81.6153 9.2624 81.8798 9.09005C82.146 8.916 82.4566 8.82898 82.8115 8.82898C83.0162 8.82898 83.2185 8.8631 83.4181 8.93136C83.6178 8.99962 83.7995 9.11053 83.9633 9.26411C84.1271 9.41598 84.2576 9.61733 84.3549 9.86817C84.4522 10.119 84.5008 10.4279 84.5008 10.7947V11.0507H81.4703V10.5285H83.8865C83.8865 10.3067 83.8421 10.1088 83.7534 9.93472C83.6664 9.76067 83.5418 9.6233 83.3797 9.52262C83.2193 9.42195 83.0299 9.37161 82.8115 9.37161C82.5709 9.37161 82.3627 9.43133 82.1869 9.55078C82.0129 9.66852 81.8789 9.8221 81.7851 10.0115C81.6912 10.2009 81.6443 10.404 81.6443 10.6207V10.9688C81.6443 11.2657 81.6955 11.5174 81.7979 11.7239C81.902 11.9286 82.0462 12.0848 82.2305 12.1923C82.4147 12.2981 82.6289 12.351 82.8729 12.351C83.0316 12.351 83.1749 12.3288 83.3029 12.2844C83.4326 12.2383 83.5444 12.1701 83.6382 12.0796C83.7321 11.9875 83.8046 11.8732 83.8558 11.7367L84.4394 11.9005C84.3779 12.0984 84.2747 12.2725 84.1297 12.4226C83.9846 12.5711 83.8055 12.6871 83.5922 12.7707C83.3789 12.8526 83.1391 12.8936 82.8729 12.8936ZM86.877 12.9038C86.6278 12.9038 86.4017 12.8569 86.1987 12.7631C85.9956 12.6675 85.8344 12.5301 85.7149 12.351C85.5955 12.1701 85.5357 11.9517 85.5357 11.6957C85.5357 11.4705 85.5801 11.2879 85.6688 11.148C85.7576 11.0063 85.8762 10.8954 86.0246 10.8152C86.1731 10.735 86.3369 10.6753 86.5161 10.636C86.6969 10.5951 86.8787 10.5627 87.0612 10.5388C87.3001 10.5081 87.4938 10.485 87.6423 10.4697C87.7924 10.4526 87.9016 10.4245 87.9699 10.3852C88.0399 10.346 88.0748 10.2777 88.0748 10.1804V10.16C88.0748 9.90742 88.0057 9.71118 87.8675 9.57126C87.731 9.43133 87.5237 9.36137 87.2455 9.36137C86.9572 9.36137 86.7311 9.42451 86.5672 9.55078C86.4034 9.67705 86.2883 9.81186 86.2217 9.95519L85.6484 9.75043C85.7507 9.51153 85.8872 9.32554 86.0579 9.19244C86.2302 9.05763 86.4179 8.96378 86.621 8.91088C86.8258 8.85628 87.0271 8.82898 87.2251 8.82898C87.3513 8.82898 87.4964 8.84433 87.6602 8.87505C87.8257 8.90406 87.9853 8.96463 88.1388 9.05678C88.2941 9.14893 88.4229 9.288 88.5253 9.47399C88.6277 9.65999 88.6789 9.90912 88.6789 10.2214V12.8117H88.0748V12.2793H88.0441C88.0032 12.3646 87.9349 12.4559 87.8394 12.5532C87.7438 12.6504 87.6167 12.7332 87.458 12.8015C87.2993 12.8697 87.1056 12.9038 86.877 12.9038ZM86.9691 12.3612C87.208 12.3612 87.4093 12.3143 87.5732 12.2204C87.7387 12.1266 87.8632 12.0054 87.9469 11.857C88.0322 11.7085 88.0748 11.5524 88.0748 11.3886V10.8357C88.0492 10.8664 87.9929 10.8946 87.9059 10.9202C87.8206 10.944 87.7216 10.9654 87.609 10.9841C87.4981 11.0012 87.3897 11.0166 87.2839 11.0302C87.1798 11.0422 87.0954 11.0524 87.0305 11.0609C86.8735 11.0814 86.7268 11.1147 86.5903 11.1608C86.4555 11.2051 86.3463 11.2725 86.2627 11.363C86.1807 11.4517 86.1398 11.5729 86.1398 11.7264C86.1398 11.9363 86.2174 12.095 86.3727 12.2025C86.5297 12.3083 86.7285 12.3612 86.9691 12.3612ZM90.6858 7.56966V12.8117H90.0818V7.56966H90.6858ZM93.8023 8.88017V9.39209H91.7649V8.88017H93.8023ZM92.3587 7.93824H92.9628V11.6855C92.9628 11.8561 92.9875 11.9841 93.037 12.0694C93.0882 12.153 93.1531 12.2093 93.2316 12.2383C93.3118 12.2656 93.3962 12.2793 93.4849 12.2793C93.5515 12.2793 93.6061 12.2759 93.6488 12.2691C93.6914 12.2605 93.7256 12.2537 93.7511 12.2486L93.874 12.7912C93.8331 12.8066 93.7759 12.8219 93.7025 12.8373C93.6291 12.8544 93.5361 12.8629 93.4235 12.8629C93.2529 12.8629 93.0857 12.8262 92.9218 12.7528C92.7597 12.6794 92.6249 12.5677 92.5174 12.4175C92.4116 12.2674 92.3587 12.0779 92.3587 11.8493V7.93824ZM95.6998 10.4466V12.8117H95.0958V7.56966H95.6998V9.49447H95.751C95.8432 9.29141 95.9814 9.13015 96.1657 9.01071C96.3517 8.88955 96.5991 8.82898 96.908 8.82898C97.1759 8.82898 97.4105 8.88273 97.6119 8.99023C97.8132 9.09603 97.9693 9.25899 98.0803 9.47911C98.1929 9.69753 98.2492 9.97567 98.2492 10.3135V12.8117H97.6451V10.3545C97.6451 10.0422 97.5641 9.80077 97.402 9.63013C97.2416 9.45778 97.0189 9.37161 96.7339 9.37161C96.536 9.37161 96.3585 9.41342 96.2015 9.49703C96.0462 9.58064 95.9234 9.70265 95.8329 9.86305C95.7442 10.0234 95.6998 10.218 95.6998 10.4466ZM99.9029 14.286C99.8005 14.286 99.7092 14.2775 99.629 14.2604C99.5488 14.2451 99.4934 14.2297 99.4626 14.2143L99.6162 13.682C99.763 13.7195 99.8927 13.7331 100.005 13.7229C100.118 13.7127 100.218 13.6623 100.305 13.5719C100.393 13.4832 100.475 13.339 100.548 13.1393L100.661 12.8322L99.2067 8.88017H99.8619L100.947 12.0131H100.988L102.073 8.88017H102.729L101.06 13.385C100.985 13.5881 100.892 13.7562 100.781 13.8893C100.67 14.0241 100.541 14.1239 100.394 14.1887C100.249 14.2536 100.085 14.286 99.9029 14.286Z" fill="#82F3CC"/>
<rect x="70.456" y="4.83564" width="37.1599" height="11.9521" rx="1.5767" stroke="#383D47" stroke-width="0.450487"/>
<g clip-path="url(#clip0_360_18777)">
<path d="M120.13 13.2143L117.009 9.6104H123.251L120.13 13.2143Z" fill="#C5C9D3"/>
</g>
<rect x="0.300325" y="0.300325" width="133.945" height="21.0227" rx="1.50162" stroke="#383D47" stroke-width="0.600649"/>
<defs>
<clipPath id="clip0_360_18777">
<rect width="9.61039" height="9.61039" fill="white" transform="translate(115.325 6.0065)"/>
</clipPath>
</defs>
</svg>
