<svg width="407" height="118" viewBox="0 0 407 118" fill="none" xmlns="http://www.w3.org/2000/svg">
<g filter="url(#filter0_dd_416_13293)">
<rect x="23.5295" y="12.059" width="359.445" height="70.5882" rx="4.80988" fill="#21242C" shape-rendering="crispEdges"/>
<path d="M47.0805 51.8257L47.0722 48.1743H47.5568L52.1691 43.0189H55.7035L50.0301 49.3358H49.4034L47.0805 51.8257ZM44.3232 55.8531V38.7408H47.3479V55.8531H44.3232ZM52.378 55.8531L48.2002 50.0126L50.239 47.8819L55.996 55.8531H52.378ZM64.1696 56.0871C62.9274 56.0871 61.8245 55.8782 60.8608 55.4604C59.9027 55.0427 59.1507 54.4717 58.6048 53.7475C58.0644 53.0178 57.7971 52.1906 57.8026 51.2659C57.7971 50.5473 57.953 49.8872 58.2706 49.2856C58.5881 48.684 59.017 48.1827 59.5573 47.7816C60.1032 47.375 60.7104 47.116 61.3788 47.0046V46.8876C60.4987 46.6926 59.7857 46.2442 59.2398 45.5423C58.6995 44.8349 58.4321 44.0188 58.4377 43.0941C58.4321 42.214 58.6772 41.4286 59.173 40.7378C59.6687 40.0471 60.3483 39.504 61.2117 39.1085C62.0751 38.7074 63.0611 38.5069 64.1696 38.5069C65.267 38.5069 66.2446 38.7074 67.1024 39.1085C67.9659 39.504 68.6454 40.0471 69.1412 40.7378C69.6425 41.4286 69.8932 42.214 69.8932 43.0941C69.8932 44.0188 69.6175 44.8349 69.066 45.5423C68.5201 46.2442 67.8154 46.6926 66.952 46.8876V47.0046C67.6205 47.116 68.2221 47.375 68.7568 47.7816C69.2972 48.1827 69.7261 48.684 70.0436 49.2856C70.3667 49.8872 70.5282 50.5473 70.5282 51.2659C70.5282 52.1906 70.2553 53.0178 69.7094 53.7475C69.1635 54.4717 68.4115 55.0427 67.4534 55.4604C66.5008 55.8782 65.4062 56.0871 64.1696 56.0871ZM64.1696 53.6974C64.8102 53.6974 65.3673 53.5888 65.8407 53.3715C66.3142 53.1487 66.6819 52.8368 66.9437 52.4357C67.2055 52.0346 67.3392 51.5723 67.3447 51.0487C67.3392 50.5028 67.1971 50.0209 66.9186 49.6031C66.6457 49.1798 66.2697 48.8484 65.7906 48.6088C65.3171 48.3693 64.7768 48.2495 64.1696 48.2495C63.5569 48.2495 63.011 48.3693 62.5319 48.6088C62.0529 48.8484 61.6741 49.1798 61.3956 49.6031C61.1226 50.0209 60.9889 50.5028 60.9945 51.0487C60.9889 51.5723 61.117 52.0346 61.3788 52.4357C61.6406 52.8312 62.0083 53.1404 62.4818 53.3632C62.9608 53.586 63.5234 53.6974 64.1696 53.6974ZM64.1696 45.9016C64.6932 45.9016 65.1556 45.7958 65.5566 45.5841C65.9633 45.3724 66.2836 45.0772 66.5175 44.6984C66.7515 44.3196 66.8713 43.8823 66.8768 43.3866C66.8713 42.8964 66.7543 42.4675 66.5259 42.0998C66.2975 41.7266 65.98 41.4397 65.5734 41.2392C65.1667 41.0331 64.6988 40.93 64.1696 40.93C63.6293 40.93 63.153 41.0331 62.7408 41.2392C62.3342 41.4397 62.0167 41.7266 61.7883 42.0998C61.5654 42.4675 61.4568 42.8964 61.4624 43.3866C61.4568 43.8823 61.5682 44.3196 61.7966 44.6984C62.0306 45.0716 62.3509 45.3669 62.7575 45.5841C63.1697 45.7958 63.6404 45.9016 64.1696 45.9016ZM83.8531 46.4113L81.0958 46.7121C81.0178 46.4336 80.8813 46.1718 80.6863 45.9267C80.4969 45.6816 80.2407 45.4838 79.9176 45.3334C79.5945 45.183 79.199 45.1078 78.7311 45.1078C78.1017 45.1078 77.5725 45.2443 77.1436 45.5173C76.7202 45.7902 76.5113 46.1439 76.5169 46.5784C76.5113 46.9516 76.6478 47.2552 76.9263 47.4892C77.2104 47.7231 77.6783 47.9153 78.33 48.0657L80.5192 48.5336C81.7336 48.7954 82.636 49.2104 83.2264 49.7786C83.8225 50.3468 84.1233 51.0904 84.1288 52.0096C84.1233 52.8173 83.8865 53.5303 83.4186 54.1486C82.9563 54.7613 82.3129 55.2404 81.4885 55.5858C80.6641 55.9311 79.7171 56.1038 78.6476 56.1038C77.0767 56.1038 75.8122 55.7752 74.8541 55.1179C73.896 54.455 73.325 53.5331 73.1412 52.3521L76.0907 52.0681C76.2244 52.6474 76.5085 53.0847 76.943 53.3799C77.3775 53.6751 77.9429 53.8227 78.6392 53.8227C79.3578 53.8227 79.9343 53.6751 80.3688 53.3799C80.8089 53.0847 81.0289 52.7198 81.0289 52.2853C81.0289 51.9177 80.8869 51.6141 80.6028 51.3745C80.3243 51.135 79.8898 50.9512 79.2993 50.8231L77.1101 50.3635C75.8791 50.1073 74.9683 49.6756 74.3778 49.0684C73.7874 48.4556 73.4949 47.6814 73.5005 46.7455C73.4949 45.9545 73.7094 45.2694 74.1439 44.69C74.5839 44.1052 75.1939 43.654 75.9738 43.3364C76.7592 43.0134 77.6644 42.8518 78.6893 42.8518C80.1934 42.8518 81.3771 43.1721 82.2405 43.8127C83.1095 44.4533 83.647 45.3195 83.8531 46.4113ZM101.805 44.5146H98.6799C98.5908 44.0021 98.4265 43.5481 98.1869 43.1526C97.9474 42.7515 97.6494 42.4117 97.2929 42.1332C96.9364 41.8547 96.5297 41.6458 96.073 41.5066C95.6217 41.3617 95.1343 41.2893 94.6107 41.2893C93.6805 41.2893 92.856 41.5233 92.1375 41.9912C91.4189 42.4535 90.8563 43.1331 90.4496 44.03C90.043 44.9212 89.8397 46.0102 89.8397 47.297C89.8397 48.606 90.043 49.709 90.4496 50.6058C90.8618 51.4971 91.4244 52.1711 92.1375 52.6279C92.856 53.0791 93.6777 53.3047 94.6024 53.3047C95.1148 53.3047 95.5939 53.2378 96.0395 53.1042C96.4907 52.9649 96.8946 52.7616 97.2511 52.4942C97.6132 52.2268 97.9168 51.8982 98.1619 51.5082C98.4125 51.1183 98.5852 50.6727 98.6799 50.1713L101.805 50.188C101.688 51.0013 101.434 51.7645 101.045 52.4775C100.66 53.1905 100.156 53.8199 99.5322 54.3658C98.9083 54.9062 98.1786 55.3295 97.343 55.6359C96.5074 55.9367 95.58 56.0871 94.5606 56.0871C93.0566 56.0871 91.7141 55.739 90.5332 55.0427C89.3523 54.3464 88.422 53.3409 87.7424 52.0263C87.0628 50.7117 86.723 49.1352 86.723 47.297C86.723 45.4532 87.0656 43.8768 87.7508 42.5677C88.4359 41.2531 89.369 40.2476 90.5499 39.5513C91.7308 38.855 93.0677 38.5069 94.5606 38.5069C95.5131 38.5069 96.3988 38.6406 97.2177 38.908C98.0365 39.1753 98.7662 39.5681 99.4068 40.0861C100.047 40.5986 100.574 41.228 100.986 41.9745C101.404 42.7153 101.677 43.562 101.805 44.5146ZM107.936 38.7408V55.8531H104.911V38.7408H107.936ZM119.627 50.4554V43.0189H122.652V55.8531H119.719V53.5721H119.585C119.295 54.2906 118.819 54.8783 118.156 55.3351C117.499 55.7919 116.689 56.0203 115.725 56.0203C114.884 56.0203 114.14 55.8337 113.494 55.4604C112.853 55.0816 112.352 54.533 111.99 53.8144C111.628 53.0902 111.447 52.2157 111.447 51.1907V43.0189H114.472V50.7228C114.472 51.5361 114.694 52.1822 115.14 52.6613C115.586 53.1404 116.17 53.3799 116.895 53.3799C117.34 53.3799 117.772 53.2713 118.19 53.054C118.608 52.8368 118.95 52.5137 119.218 52.0848C119.49 51.6503 119.627 51.1072 119.627 50.4554ZM136.307 46.4113L133.549 46.7121C133.471 46.4336 133.335 46.1718 133.14 45.9267C132.95 45.6816 132.694 45.4838 132.371 45.3334C132.048 45.183 131.653 45.1078 131.185 45.1078C130.555 45.1078 130.026 45.2443 129.597 45.5173C129.174 45.7902 128.965 46.1439 128.97 46.5784C128.965 46.9516 129.101 47.2552 129.38 47.4892C129.664 47.7231 130.132 47.9153 130.784 48.0657L132.973 48.5336C134.187 48.7954 135.089 49.2104 135.68 49.7786C136.276 50.3468 136.577 51.0904 136.582 52.0096C136.577 52.8173 136.34 53.5303 135.872 54.1486C135.41 54.7613 134.766 55.2404 133.942 55.5858C133.118 55.9311 132.171 56.1038 131.101 56.1038C129.53 56.1038 128.266 55.7752 127.308 55.1179C126.349 54.455 125.779 53.5331 125.595 52.3521L128.544 52.0681C128.678 52.6474 128.962 53.0847 129.396 53.3799C129.831 53.6751 130.396 53.8227 131.093 53.8227C131.811 53.8227 132.388 53.6751 132.822 53.3799C133.262 53.0847 133.482 52.7198 133.482 52.2853C133.482 51.9177 133.34 51.6141 133.056 51.3745C132.778 51.135 132.343 50.9512 131.753 50.8231L129.564 50.3635C128.333 50.1073 127.422 49.6756 126.831 49.0684C126.241 48.4556 125.948 47.6814 125.954 46.7455C125.948 45.9545 126.163 45.2694 126.597 44.69C127.037 44.1052 127.647 43.654 128.427 43.3364C129.213 43.0134 130.118 42.8518 131.143 42.8518C132.647 42.8518 133.831 43.1721 134.694 43.8127C135.563 44.4533 136.1 45.3195 136.307 46.4113ZM145.886 43.0189V45.3585H138.508V43.0189H145.886ZM140.33 39.9441H143.354V51.9929C143.354 52.3995 143.416 52.7114 143.538 52.9287C143.666 53.1404 143.833 53.2852 144.039 53.3632C144.246 53.4412 144.474 53.4802 144.725 53.4802C144.914 53.4802 145.087 53.4662 145.243 53.4384C145.404 53.4105 145.527 53.3855 145.61 53.3632L146.12 55.7278C145.958 55.7835 145.727 55.8448 145.426 55.9116C145.131 55.9785 144.769 56.0175 144.34 56.0286C143.583 56.0509 142.9 55.9367 142.293 55.686C141.686 55.4298 141.204 55.0343 140.848 54.4995C140.497 53.9648 140.324 53.2963 140.33 52.4942V39.9441ZM154.36 56.1038C153.074 56.1038 151.962 55.8364 151.027 55.3017C150.096 54.7613 149.381 53.9982 148.879 53.0122C148.378 52.0207 148.127 50.8537 148.127 49.5112C148.127 48.191 148.378 47.0324 148.879 46.0353C149.386 45.0326 150.094 44.2528 151.002 43.6957C151.91 43.1331 152.976 42.8518 154.202 42.8518C154.993 42.8518 155.739 42.9799 156.441 43.2362C157.148 43.4868 157.772 43.8768 158.313 44.406C158.859 44.9351 159.288 45.6092 159.599 46.428C159.911 47.2413 160.067 48.2105 160.067 49.3358V50.2632H149.548V48.2245H157.168C157.162 47.6451 157.037 47.1299 156.792 46.6787C156.547 46.2219 156.204 45.8626 155.764 45.6008C155.33 45.339 154.823 45.2081 154.244 45.2081C153.625 45.2081 153.082 45.3585 152.614 45.6593C152.146 45.9545 151.781 46.3445 151.52 46.8291C151.263 47.3081 151.132 47.8345 151.127 48.4083V50.188C151.127 50.9345 151.263 51.5751 151.536 52.1098C151.809 52.639 152.191 53.0457 152.681 53.3298C153.171 53.6083 153.745 53.7475 154.402 53.7475C154.842 53.7475 155.241 53.6863 155.597 53.5637C155.954 53.4356 156.263 53.249 156.525 53.0039C156.786 52.7588 156.984 52.4552 157.118 52.0931L159.942 52.4106C159.764 53.1571 159.424 53.8088 158.923 54.3658C158.427 54.9173 157.792 55.3462 157.018 55.6526C156.243 55.9534 155.358 56.1038 154.36 56.1038ZM163.027 55.8531V43.0189H165.96V45.158H166.094C166.328 44.4171 166.729 43.8461 167.297 43.4451C167.871 43.0384 168.525 42.8351 169.26 42.8351C169.428 42.8351 169.614 42.8435 169.82 42.8602C170.032 42.8713 170.207 42.8908 170.347 42.9187V45.7011C170.219 45.6565 170.015 45.6175 169.737 45.5841C169.464 45.5451 169.199 45.5256 168.943 45.5256C168.391 45.5256 167.896 45.6454 167.456 45.8849C167.021 46.1189 166.679 46.4447 166.428 46.8625C166.177 47.2803 166.052 47.7621 166.052 48.308V55.8531H163.027Z" fill="#EBEFF0"/>
<rect x="195.65" y="28.169" width="121.881" height="38.3682" rx="5.14353" fill="#2A2E37"/>
<path d="M212.661 55.3531V38.2525H214.732V45.8676H223.85V38.2525H225.921V55.3531H223.85V47.7046H214.732V55.3531H212.661ZM236.157 55.6203C234.921 55.6203 233.855 55.3475 232.959 54.802C232.068 54.2509 231.38 53.4827 230.896 52.4974C230.417 51.5066 230.178 50.3543 230.178 49.0406C230.178 47.7269 230.417 46.569 230.896 45.567C231.38 44.5595 232.054 43.7746 232.917 43.2124C233.785 42.6446 234.798 42.3607 235.956 42.3607C236.624 42.3607 237.284 42.472 237.935 42.6947C238.586 42.9173 239.179 43.2792 239.714 43.7801C240.248 44.2756 240.674 44.9324 240.991 45.7507C241.308 46.569 241.467 47.5766 241.467 48.7734V49.6084H231.581V47.905H239.463C239.463 47.1813 239.318 46.5356 239.029 45.9678C238.745 45.4 238.339 44.9519 237.81 44.6235C237.287 44.2951 236.669 44.1308 235.956 44.1308C235.171 44.1308 234.492 44.3257 233.919 44.7153C233.351 45.0994 232.914 45.6004 232.608 46.2183C232.302 46.8362 232.149 47.4986 232.149 48.2056V49.3412C232.149 50.3098 232.316 51.1308 232.65 51.8044C232.989 52.4724 233.46 52.9817 234.061 53.3324C234.662 53.6775 235.361 53.8501 236.157 53.8501C236.674 53.8501 237.142 53.7777 237.559 53.633C237.982 53.4827 238.347 53.2601 238.653 52.965C238.959 52.6644 239.196 52.2915 239.363 51.8461L241.267 52.3805C241.066 53.0263 240.729 53.594 240.256 54.0839C239.783 54.5682 239.199 54.9467 238.503 55.2195C237.807 55.4867 237.025 55.6203 236.157 55.6203ZM249.219 55.6537C248.406 55.6537 247.668 55.5006 247.006 55.1944C246.343 54.8827 245.817 54.4346 245.428 53.8501C245.038 53.2601 244.843 52.5475 244.843 51.7125C244.843 50.9777 244.988 50.3821 245.277 49.9257C245.567 49.4636 245.954 49.1018 246.438 48.8402C246.922 48.5785 247.457 48.3837 248.041 48.2557C248.631 48.1221 249.224 48.0163 249.82 47.9384C250.599 47.8382 251.231 47.763 251.715 47.7129C252.205 47.6573 252.561 47.5654 252.784 47.4374C253.012 47.3094 253.126 47.0867 253.126 46.7694V46.7026C253.126 45.8788 252.901 45.2386 252.45 44.7821C252.005 44.3257 251.328 44.0974 250.421 44.0974C249.48 44.0974 248.743 44.3034 248.208 44.7153C247.674 45.1273 247.298 45.567 247.081 46.0346L245.211 45.3666C245.545 44.5873 245.99 43.9805 246.547 43.5464C247.109 43.1066 247.721 42.8004 248.384 42.6279C249.052 42.4497 249.708 42.3607 250.354 42.3607C250.766 42.3607 251.239 42.4108 251.774 42.511C252.314 42.6056 252.834 42.8032 253.335 43.1038C253.842 43.4044 254.262 43.8581 254.596 44.4648C254.93 45.0716 255.097 45.8843 255.097 46.903V55.3531H253.126V53.6163H253.026C252.892 53.8946 252.67 54.1925 252.358 54.5098C252.046 54.827 251.632 55.097 251.114 55.3197C250.596 55.5424 249.964 55.6537 249.219 55.6537ZM249.519 53.8835C250.298 53.8835 250.955 53.7304 251.49 53.4243C252.03 53.1181 252.436 52.7229 252.709 52.2386C252.987 51.7543 253.126 51.2449 253.126 50.7106V48.907C253.043 49.0072 252.859 49.099 252.575 49.1825C252.297 49.2605 251.974 49.33 251.607 49.3913C251.245 49.4469 250.891 49.497 250.546 49.5416C250.207 49.5805 249.931 49.6139 249.72 49.6418C249.207 49.7086 248.729 49.8171 248.283 49.9674C247.844 50.1121 247.487 50.332 247.215 50.6271C246.947 50.9165 246.814 51.3117 246.814 51.8127C246.814 52.4974 247.067 53.0151 247.574 53.3658C248.086 53.7109 248.734 53.8835 249.519 53.8835ZM261.644 38.2525V55.3531H259.673V38.2525H261.644ZM271.811 42.5277V44.1976H265.164V42.5277H271.811ZM267.101 39.4549H269.072V51.6791C269.072 52.2358 269.152 52.6533 269.314 52.9316C269.481 53.2044 269.692 53.3881 269.949 53.4827C270.21 53.5718 270.486 53.6163 270.775 53.6163C270.992 53.6163 271.17 53.6052 271.31 53.5829C271.449 53.5551 271.56 53.5328 271.644 53.5161L272.044 55.2863C271.911 55.3364 271.724 55.3865 271.485 55.4366C271.246 55.4923 270.942 55.5201 270.575 55.5201C270.018 55.5201 269.473 55.4004 268.938 55.161C268.409 54.9217 267.97 54.5571 267.619 54.0672C267.274 53.5773 267.101 52.9595 267.101 52.2135V39.4549ZM278.001 47.6378V55.3531H276.03V38.2525H278.001V44.5316H278.168C278.468 43.8692 278.919 43.3432 279.52 42.9535C280.127 42.5583 280.934 42.3607 281.942 42.3607C282.816 42.3607 283.581 42.536 284.238 42.8867C284.895 43.2318 285.404 43.7634 285.766 44.4815C286.133 45.1941 286.317 46.1014 286.317 47.2036V55.3531H284.347V47.3372C284.347 46.3185 284.082 45.5308 283.553 44.9742C283.03 44.412 282.304 44.1308 281.374 44.1308C280.728 44.1308 280.149 44.2672 279.637 44.54C279.131 44.8128 278.73 45.2108 278.435 45.734C278.145 46.2573 278.001 46.8919 278.001 47.6378ZM291.712 60.1626C291.378 60.1626 291.08 60.1348 290.818 60.0791C290.557 60.029 290.376 59.9789 290.276 59.9288L290.777 58.192C291.255 58.3145 291.678 58.359 292.046 58.3256C292.413 58.2922 292.739 58.128 293.023 57.833C293.312 57.5435 293.577 57.0732 293.816 56.4219L294.183 55.4199L289.441 42.5277H291.578L295.119 52.7479H295.252L298.792 42.5277H300.93L295.486 57.2235C295.241 57.8859 294.938 58.4342 294.576 58.8684C294.214 59.3082 293.794 59.6338 293.315 59.8453C292.842 60.0569 292.307 60.1626 291.712 60.1626Z" fill="#82F3CC"/>
<rect x="195.65" y="28.169" width="121.881" height="38.3682" rx="5.14353" stroke="#383D47" stroke-width="1.46958"/>
<g clip-path="url(#clip0_416_13293)">
<path d="M348.06 55.1909L337.878 43.4342H358.241L348.06 55.1909Z" fill="#C5C9D3"/>
</g>
<rect x="24.1961" y="12.7255" width="358.112" height="69.2552" rx="4.14336" stroke="#2A2E37" stroke-width="1.33302" shape-rendering="crispEdges"/>
</g>
<defs>
<filter id="filter0_dd_416_13293" x="0.000127792" y="0.294314" width="406.504" height="117.647" filterUnits="userSpaceOnUse" color-interpolation-filters="sRGB">
<feFlood flood-opacity="0" result="BackgroundImageFix"/>
<feColorMatrix in="SourceAlpha" type="matrix" values="0 0 0 0 0 0 0 0 0 0 0 0 0 0 0 0 0 0 127 0" result="hardAlpha"/>
<feOffset dy="11.7647"/>
<feGaussianBlur stdDeviation="11.7647"/>
<feComposite in2="hardAlpha" operator="out"/>
<feColorMatrix type="matrix" values="0 0 0 0 0.054902 0 0 0 0 0.0627451 0 0 0 0 0.0823529 0 0 0 0.3 0"/>
<feBlend mode="normal" in2="BackgroundImageFix" result="effect1_dropShadow_416_13293"/>
<feColorMatrix in="SourceAlpha" type="matrix" values="0 0 0 0 0 0 0 0 0 0 0 0 0 0 0 0 0 0 127 0" result="hardAlpha"/>
<feOffset dy="3.52941"/>
<feGaussianBlur stdDeviation="3.52941"/>
<feComposite in2="hardAlpha" operator="out"/>
<feColorMatrix type="matrix" values="0 0 0 0 0.054902 0 0 0 0 0.0627451 0 0 0 0 0.0823529 0 0 0 0.2 0"/>
<feBlend mode="normal" in2="effect1_dropShadow_416_13293" result="effect2_dropShadow_416_13293"/>
<feBlend mode="normal" in="SourceGraphic" in2="effect2_dropShadow_416_13293" result="shape"/>
</filter>
<clipPath id="clip0_416_13293">
<rect width="31.351" height="31.351" fill="white" transform="translate(332.384 31.6776)"/>
</clipPath>
</defs>
</svg>
