<svg fill="none" height="16" viewBox="0 0 16 16" width="16" xmlns="http://www.w3.org/2000/svg" xmlns:xlink="http://www.w3.org/1999/xlink"><clipPath id="a"><path d="m0 0h16v16h-16z"/></clipPath><g clip-path="url(#a)"><g stroke="#c5c9d3" stroke-miterlimit="10"><path d="m0 12.4001h7.2"/><path d="m3.59961 16v-7.19995"/><path d="m14 7.1001v2.2"/><path d="m8 9.30005h8"/><path d="m15.5 12v2.7c0 .4-.3.7-.7.7h-6.8"/></g><g fill="#c5c9d3"><path d="m2.1 5.3c-1.2 0-2.1-.9-2.1-2.1v-2.2c0-.3.2-.5.5-.5h3.6v2.7c0 1.2-.9 2.1-2 2.1z"/><path d="m13.8998 5.3c-1.1 0-2.1-.9-2.1-2.1v-2.2c0-.3.2-.5.5-.5h3.7v2.7c0 1.2-.9 2.1-2.1 2.1z"/><path d="m8.00039 5.3c-1.1 0-2.1-.9-2.1-2.1v-2.2c0-.3.2-.5.5-.5h3.60001v2.7c.1 1.2-.90001 2.1-2.00001 2.1z"/></g></g></svg>