<svg fill="none" height="16" viewBox="0 0 16 16" width="16" xmlns="http://www.w3.org/2000/svg" xmlns:xlink="http://www.w3.org/1999/xlink"><clipPath id="a"><path d="m0 0h16v16h-16z"/></clipPath><g clip-path="url(#a)"><path d="m12.7002 9.1001c1.3807 0 2.5-1.11929 2.5-2.5s-1.1193-2.5-2.5-2.5-2.5 1.11929-2.5 2.5 1.1193 2.5 2.5 2.5z" fill="#c5c9d3"/><path d="m8.7002 15.5v-2.7c0-.6.5-1.1 1.1-1.1h6.2" stroke="#c5c9d3" stroke-miterlimit="10"/><path d="m4.89941 5.5c1.38072 0 2.5-1.11929 2.5-2.5s-1.11928-2.5-2.5-2.5c-1.38071 0-2.5 1.11929-2.5 2.5s1.11929 2.5 2.5 2.5z" fill="#c5c9d3"/><path d="m.799805 11.9001v-2.7c0-.6.499995-1.1 1.099995-1.1h6.2" stroke="#c5c9d3" stroke-miterlimit="10"/></g></svg>