<svg fill="none" height="16" viewBox="0 0 16 16" width="16" xmlns="http://www.w3.org/2000/svg"><g stroke="#c5c9d3" stroke-miterlimit="10" stroke-width=".99"><g clip-rule="evenodd" fill-rule="evenodd"><path d="m14.2727 8.97897v-1.72202c0-.30462-.1616-.58437-.429-.73979l-1.492-.8579c-.2611-.1492-.5905-.1492-.8516 0l-1.492.8579c-.26115.1492-.429.43517-.429.73979v1.72202c0 .30462.16163.58436.429.73978l1.492.85785c.2611.1492.5905.1492.8516 0l1.492-.85785c.2611-.14921.429-.43516.429-.73978z"/><path d="m6.42113 3.97457v-1.72202c0-.30461-.16164-.58436-.42895-.73978l-1.49201-.857901c-.2611-.1492-.59058-.1492-.85168 0l-1.492.857901c-.2611.1492-.42895.43517-.42895.73978v1.72202c0 .30462.16163.58437.42895.73979l1.492.8579c.2611.1492.59058.1492.85168 0l1.49201-.8579c.2611-.1492.42895-.43517.42895-.73979z"/><path d="m6.42113 13.747v-1.722c0-.3046-.16164-.5844-.42895-.7398l-1.49201-.8579c-.2611-.1492-.59058-.1492-.85168 0l-1.492.8579c-.2611.1492-.42895.4352-.42895.7398v1.722c0 .3046.16163.5844.42895.7398l1.492.8579c.2611.1492.59058.1492.85168 0l1.49201-.8579c.2611-.1492.42895-.4352.42895-.7398z"/></g><path d="m12.3516 10.5828v1.5293c0 .4289-.3481.7708-.7709.7708h-5.1598"/><path d="m12.3516 5.41674v-1.65364c0-.36057-.2922-.65275-.6527-.65275h-5.278"/></g><g fill="#c5c9d3"><path d="m12.7373 8.43199v-.62167c0-.27467-.2227-.49733-.4973-.49733h-.6217c-.2747 0-.4973.22266-.4973.49733v.62167c0 .27467.2226.49733.4973.49733h.6217c.2746 0 .4973-.22266.4973-.49733z"/><path d="m4.88574 13.2001v-.6217c0-.2747-.22266-.4973-.49733-.4973h-.62167c-.27467 0-.49734.2226-.49734.4973v.6217c0 .2746.22267.4973.49734.4973h.62167c.27467 0 .49733-.2227.49733-.4973z"/><path d="m5.00342 3.42735v-.62166c0-.27467-.22267-.49734-.49734-.49734h-.62166c-.27467 0-.49734.22267-.49734.49734v.62166c0 .27467.22267.49734.49734.49734h.62166c.27467 0 .49734-.22267.49734-.49734z"/></g></svg>