<svg fill="none" height="16" viewBox="0 0 16 16" width="16" xmlns="http://www.w3.org/2000/svg" xmlns:xlink="http://www.w3.org/1999/xlink"><clipPath id="a"><path d="m0 0h16v16h-16z"/></clipPath><g clip-path="url(#a)"><path d="m1.35635.618164c-.399854 0-.738186.338332-.738186.738186v5.16728c0 .39985.338332.73819.738186.73819h5.16728c.39985 0 .73818-.33834.73818-.73819v-5.16728c0-.399854-.33833-.738186-.73818-.738186zm8.12001 0c-.39985 0-.73818.338332-.73818.738186v5.16728c0 .39985.33833.73819.73818.73819h5.16724c.3999 0 .7382-.33834.7382-.73819v-5.16728c0-.399854-.3383-.738186-.7382-.738186zm-8.12001 8.120016c-.399854 0-.738186.33833-.738186.73818v5.16734c0 .3998.338332.7381.738186.7381h5.16728c.39985 0 .73818-.3383.73818-.7381v-5.16734c0-.39985-.33833-.73818-.73818-.73818zm8.12001 0c-.39985 0-.73818.33833-.73818.73818v5.16734c0 .3998.33833.7381.73818.7381h5.16724c.3999 0 .7382-.3383.7382-.7381v-5.16734c0-.39985-.3383-.73818-.7382-.73818z" stroke="#c5c9d3" stroke-miterlimit="10"/></g></svg>