<svg fill="none" height="16" viewBox="0 0 16 16" width="16" xmlns="http://www.w3.org/2000/svg" xmlns:xlink="http://www.w3.org/1999/xlink"><clipPath id="a"><path d="m0 0h16v16h-16z"/></clipPath><g clip-path="url(#a)"><path d="m12.7461 13.7656-3.49273-10.73033c-.06149-.54727-.44889-.98386-.95927-1.1253-.09224-.02459-.15373-.09838-.15373-.19062v-.946969c0-.086088-.06764-.153729-.15373-.153729s-.15373.067641-.15373.153729v.922379c0 .09838-.07379.17217-.16603.19062-.54112.11683-.95926.55957-1.0269 1.13145l-3.46198 10.74877c-.0246.0737.0123.1537.08609.1844.01844.0062.04304.0123.06149.0123.05534 0 .10453-.0307.13528-.0799l4.3536-7.68646c.07379-.13528.27057-.13528.34436 0l4.31058 7.68646c.0369.0676.123.0984.1968.0676.0737-.0307.1106-.1107.086-.1844zm-4.7902-9.65423c-.48579 0-.87933-.39354-.87933-.87933 0-.48578.39354-.87932.87933-.87932.48578 0 .87933.39354.87933.87932 0 .48579-.39355.87933-.87933.87933z" fill="#c5c9d3"/><g stroke="#c5c9d3" stroke-miterlimit="10"><path d="m13.4285 6.04826 1.8694 1.82015c.0799.07379.0799.20292 0 .28286l-7.16381 7.16993c-.07993.0799-.20292.0799-.27671 0l-7.157619-7.16993c-.079939-.07994-.07379-.20292 0-.28286l1.906239-1.82015c.07994-.07379.19677-.07379.27671 0l5.00542 4.91314c.07994.0738.20292.0738.27671 0l4.98696-4.90699c.0738-.07379.1968-.07994.2767-.00615z"/><path d="m13.5332 8.85864.4981.49808" stroke-width="1.01"/><path d="m12.0513 10.2666.4981.4981" stroke-width="1.01"/><path d="m10.1389 12.259.4981.4981" stroke-width="1.01"/><path d="m8.73657 13.4766.47349.4734" stroke-width=".96"/><g stroke-width="1.01"><path d="m2.60013 8.95703-.49808.50424"/><path d="m3.97733 10.3835-.49808.4981"/><path d="m5.88968 12.3635-.49808.4981"/><path d="m7.18729 13.4644-.49808.498"/></g></g></g></svg>