<svg fill="none" height="16" viewBox="0 0 16 16" width="16" xmlns="http://www.w3.org/2000/svg"><path d="m.5 14.5999v-11.5c0-.6.5-1.2 1.2-1.2h11.8" stroke="#c5c9d3" stroke-linejoin="round" stroke-miterlimit="10"/><path d="m15.5 1.3999v11.5c0 .6-.5 1.2-1.2 1.2h-11.8" stroke="#c5c9d3" stroke-linejoin="round" stroke-miterlimit="10"/><g fill="#c5c9d3"><path d="m3.2002 5.6001c.55228 0 1-.44772 1-1 0-.55229-.44772-1-1-1-.55229 0-1 .44771-1 1 0 .55228.44771 1 1 1z"/><path d="m6.3999 5.6001c.55229 0 1-.44772 1-1 0-.55229-.44771-1-1-1-.55228 0-1 .44771-1 1 0 .55228.44772 1 1 1z"/><path d="m9.3999 5.6001c.55229 0 1-.44772 1-1 0-.55229-.44771-1-1-1-.55228 0-1 .44771-1 1 0 .55228.44772 1 1 1z"/></g></svg>