<svg fill="none" height="16" viewBox="0 0 16 16" width="16" xmlns="http://www.w3.org/2000/svg" xmlns:xlink="http://www.w3.org/1999/xlink"><clipPath id="a"><path d="m0 0h16v16h-16z"/></clipPath><g clip-path="url(#a)"><g stroke="#c5c9d3" stroke-miterlimit="10"><path d="m4.2715 7.01356h-1.23446v-1.91669c0-.14407-.05013-.2756-.14413-.37582-.09399-.10022-.21932-.1566-.35718-.1566-.13159 0-.26319.05638-.35718.1566-.094.10022-.14413.23802-.14413.37582v2.45537c0 .29439.22559.53242.50131.53242h1.73577v2.89384h-1.73577c-.27572 0-.50131.238-.50131.5324v2.4491c0 .1378.05013.2756.14413.3758.09399.1003.21932.1566.35718.1566.13159 0 .26319-.0563.35718-.1566.094-.1002.14413-.238.14413-.3758v-1.9167h1.25953c.21932 1.9543 1.79216 3.4764 3.70339 3.4764s3.48404-1.5221 3.70344-3.4764h1.2595v1.9167c0 .1441.0501.2756.1441.3758.094.1003.2193.1566.3572.1566.1316 0 .2632-.0563.3572-.1566.094-.1002.1441-.238.1441-.3758v-2.4491c0-.2944-.2256-.5324-.5013-.5324h-1.7358v-2.89384h1.7358c.2757 0 .5013-.23803.5013-.53242v-2.45537c0-.14407-.0501-.2756-.1441-.37582s-.2193-.1566-.3572-.1566c-.1316 0-.2632.05638-.3572.1566s-.1441.23802-.1441.37582v1.91669h-8.68513z"/><path d="m5.44353 5.96755h5.11327c.163 0 .2695-.16912.1943-.31319l-1.2282-2.27999c-.03759-.0689-3.03916 0-3.03916 0l-1.2282 2.27999c-.07519.14407.03133.31319.19426.31319z"/><path d="m9.40308 3.21208.58903-1.02141"/></g><path d="m10.4558 2.54749c.5814 0 1.0528-.46272 1.0528-1.03351 0-.570791-.4714-1.033511-1.0528-1.033511s-1.05272.46272-1.05272 1.033511c0 .57079.47132 1.03351 1.05272 1.03351z" fill="#c5c9d3"/><path d="m6.58879 3.21208-.58903-1.02141" stroke="#c5c9d3" stroke-miterlimit="10"/><path d="m5.53638 2.54749c.58142 0 1.05275-.46272 1.05275-1.03351 0-.570791-.47133-1.033511-1.05275-1.033511-.58141 0-1.05274.46272-1.05274 1.033511 0 .57079.47133 1.03351 1.05274 1.03351z" fill="#c5c9d3"/></g></svg>