<svg fill="none" height="16" viewBox="0 0 16 16" width="16" xmlns="http://www.w3.org/2000/svg" xmlns:xlink="http://www.w3.org/1999/xlink"><clipPath id="a"><path d="m0 0h16v16h-16z"/></clipPath><g clip-path="url(#a)"><g stroke="#c5c9d3"><path d="m.5 15.6444v-10.22226c0-.53334.5-1.06667 1.2-1.06667h11.8" stroke-linejoin="round" stroke-miterlimit="10"/><path d="m15.5 3.91113v10.22227c0 .5333-.5 1.0666-1.2 1.0666h-11.8" stroke-linejoin="round" stroke-miterlimit="10"/><path d="m10 9.5c0 1.1046-.89543 2-2 2s-2-.8954-2-2c0-1.10457.89543-2 2-2s2 .89543 2 2z"/></g><path d="m4.5 1.21262c0-.15715.02632-.263528.05209-.323731h6.89581c.0258.060203.0521.166581.0521.323731v1.99726h1v-1.99726c0-.273176-.0513-.541995-.1776-.760193-.1272-.219938-.3784-.452427-.7668-.452427h-7.11116c-.38848 0-.63961.232489-.76686.452427-.12625.218198-.17758.487017-.17758.760193v1.99726h1z" fill="#c5c9d3"/></g></svg>