<svg fill="none" height="16" viewBox="0 0 16 16" width="16" xmlns="http://www.w3.org/2000/svg" xmlns:xlink="http://www.w3.org/1999/xlink"><clipPath id="a"><path d="m0 0h16v16h-16z"/></clipPath><g clip-path="url(#a)"><g stroke="#c5c9d3" stroke-miterlimit="10"><path d="m6.2998 2.1001h9.7"/><path d="m6.2998 8h9.7"/><path d="m6.2998 13.8999h9.7"/></g><g fill="#c5c9d3"><path d="m.5 0c-.3 0-.5.2-.5.5v3.8h3.8c.3 0 .5-.2.5-.5v-3.8zm1.6 3.3c-.6 0-1.1-.5-1.1-1.2 0-.6.5-1.1 1.1-1.1s1.2.5 1.2 1.2c0 .6-.5 1.1-1.2 1.1z"/><path d="m.5 5.8999c-.3 0-.5.2-.5.5v3.8h3.8c.3 0 .5-.2.5-.5v-3.8zm1.6 3.3c-.6 0-1.1-.6-1.1-1.2s.5-1.2 1.2-1.2c.6 0 1.2.5 1.2 1.2-.1.6-.6 1.2-1.3 1.2z"/><path d="m.5 11.7c-.3 0-.5.2-.5.5v3.8h3.8c.3 0 .5-.2.5-.5v-3.8zm1.6 3.3c-.6 0-1.1-.5-1.1-1.1s.5-1.2 1.2-1.2c.6 0 1.2.5 1.2 1.2-.1.6-.6 1.1-1.3 1.1z"/></g></g></svg>