<svg fill="none" height="16" viewBox="0 0 16 16" width="16" xmlns="http://www.w3.org/2000/svg" xmlns:xlink="http://www.w3.org/1999/xlink"><clipPath id="a"><path d="m0 0h16v16h-16z"/></clipPath><g clip-path="url(#a)"><g stroke="#c5c9d3" stroke-miterlimit="10"><path d="m13.7998 2.8999h-8"/><path d="m2.2002 2.8999 4 7"/><path d="m8 13.0999 4-7.00005"/></g><g fill="#c5c9d3"><path d="m2.2 5.09995c1.21503 0 2.2-.98497 2.2-2.2s-.98497-2.199999-2.2-2.199999c-1.215026 0-2.2.984969-2.2 2.199999s.984974 2.2 2.2 2.2z"/><path d="m13.7996 5.09995c1.215 0 2.2-.98497 2.2-2.2s-.985-2.199999-2.2-2.199999-2.2.984969-2.2 2.199999.985 2.2 2.2 2.2z"/><path d="m7.9998 15.2999c1.21503 0 2.2-.985 2.2-2.2s-.98497-2.2-2.2-2.2c-1.21502 0-2.2.985-2.2 2.2s.98498 2.2 2.2 2.2z"/></g></g></svg>