<svg fill="none" height="16" viewBox="0 0 16 16" width="16" xmlns="http://www.w3.org/2000/svg" xmlns:xlink="http://www.w3.org/1999/xlink"><clipPath id="a"><path d="m0 0h16v16h-16z"/></clipPath><g clip-path="url(#a)"><path d="m9.09961 13.5v-12.1c0-.5.4-.9.9-.9h5.99999" stroke="#c5c9d3" stroke-miterlimit="10"/><path d="m15.4996 2.5v12.1c0 .5-.4.9-.9.9h-5.99999" stroke="#c5c9d3" stroke-miterlimit="10"/><path d="m12.4004 4.5c.5523 0 1-.44772 1-1s-.4477-1-1-1-1 .44772-1 1 .4477 1 1 1z" fill="#c5c9d3"/><path d="m4.99961 9.8c1.04934 0 1.9-.85066 1.9-1.9s-.85066-1.9-1.9-1.9-1.9.85066-1.9 1.9.85066 1.9 1.9 1.9z" fill="#c5c9d3"/><g stroke="#c5c9d3" stroke-miterlimit="10"><path d="m-1.40039 7.8999h3"/><path d="m-2.09961.600098 4.4 4.600002"/><path d="m2.30039 10.6001-4.4 4.6"/></g></g></svg>