<svg fill="none" height="16" viewBox="0 0 16 16" width="16" xmlns="http://www.w3.org/2000/svg"><path d="m6.49961 14.1h-5.900001v-10.99995c0-.4.4-.8.800001-.8h5.9v10.99995c0 .4-.4.8-.8.8z" stroke="#c5c9d3" stroke-miterlimit="10"/><path d="m15.2992 6.60005h-4.1v-4.1c0-.4.3-.7.7-.7h4.1v4.2c0 .3-.3.6-.7.6z" fill="#c5c9d3"/><path d="m15.2992 14.6002h-4.1v-4.2c0-.4.3-.7.7-.7h4.1v4.3c0 .3-.3.6-.7.6z" fill="#c5c9d3"/><g stroke="#c5c9d3" stroke-miterlimit="10"><path d="m9.2998 4.2002h3.9"/><path d="m9.2998 12.2002h3.9"/></g></svg>