<svg fill="none" height="16" viewBox="0 0 16 16" width="16" xmlns="http://www.w3.org/2000/svg" xmlns:xlink="http://www.w3.org/1999/xlink"><clipPath id="a"><path d="m0 0h16v16h-16z"/></clipPath><g clip-path="url(#a)"><g fill="#c5c9d3"><path d="m15.0998 15.4001h-3.3v-4.9c0-.5.4-.9.9-.9h3.3v4.9c0 .5-.4.9-.9.9z"/><path d="m3.3 15.4002h-3.3v-4.9c0-.5.4-.8.9-.8h3.3v4.9c-.1.4-.5.8-.9.8z"/><path d="m9.1999 15.4001h-3.3v-4.9c0-.5.4-.9.9-.9h3.3v4.9c0 .5-.4.9-.9.9z"/></g><path d="m13.8999.600098v6.500002" stroke="#c5c9d3" stroke-miterlimit="10"/><path d="m2.1001 7.7001v-5.3c0-.7.6-1.3 1.3-1.3h8.6" stroke="#c5c9d3" stroke-miterlimit="10"/><path d="m15.9 5.5-2 2.2-1.9-2.2z" fill="#c5c9d3"/></g></svg>