<svg fill="none" height="16" viewBox="0 0 16 16" width="16" xmlns="http://www.w3.org/2000/svg" xmlns:xlink="http://www.w3.org/1999/xlink"><clipPath id="a"><path d="m0 0h16v16h-16z"/></clipPath><g clip-path="url(#a)"><g stroke="#c5c9d3" stroke-miterlimit="10"><path d="m.5 7.30005v3.29995c0 1.1.9 2.1 2.1 2.1h4.6"/><path d="m10.2002 2h1.9"/><path d="m11.6 5.30005h-11.6"/><path d="m8.7002 12.6001c2.7 0 4.8-2.2 4.8-4.8v-4.9c0-.5.4-.8.8-.8h1.7"/></g><path d="m5.9002 10.6c.38659 0 .7-.3134.7-.70005 0-.3866-.31341-.7-.7-.7-.3866 0-.7.3134-.7.7 0 .38665.3134.70005.7.70005z" fill="#c5c9d3"/></g></svg>