<svg fill="none" height="16" viewBox="0 0 16 16" width="16" xmlns="http://www.w3.org/2000/svg" xmlns:xlink="http://www.w3.org/1999/xlink"><clipPath id="a"><path d="m0 0h16v16h-16z"/></clipPath><g clip-path="url(#a)" stroke="#c5c9d3" stroke-miterlimit="10"><path d="m13.7477 4.59076h-3.1155c-.3223 0-.5814-.2591-.5814-.58139v-3.595796"/><path d="m13.0841 15.5867h-10.17443c-.36653 0-.65723-.297-.65723-.6572v-13.846c0-.366533.29702-.65723.65723-.65723h6.83769c.18958 0 .36654.082152.49294.221181l3.3367 3.766419c.1074.12007.1643.27806.1643.43604v10.07959c0 .3665-.297.6572-.6572.6572z"/><path d="m3.95898 3.56079h4.5058"/><path d="m3.95898 5.29224h4.5058"/><path d="m3.95898 7.03638h4.5058"/></g></svg>