<svg fill="none" height="16" viewBox="0 0 16 16" width="16" xmlns="http://www.w3.org/2000/svg"><g stroke="#c5c9d3" stroke-linejoin="round" stroke-miterlimit="10"><path d="m.5 15.5v-4.6c0-.6.5-1.20005 1.2-1.20005h11.8"/><path d="m15.5 9.30005v4.59995c0 .6-.5 1.2-1.2 1.2h-11.8"/><path d="m14 7.80005c0-3.3-2.7-6-6-6s-6 2.7-6 6"/><path d="m10.6004 7.80005c0-3.3-1.20001-6-2.60001-6s-2.6 2.7-2.6 6"/><path d="m2.5 5.30005h10.9"/></g><g fill="#c5c9d3"><path d="m3.4 13.3c.49706 0 .9-.4029.9-.9s-.40294-.9-.9-.9-.9.4029-.9.9.40294.9.9.9z"/><path d="m6.1998 13.3c.49706 0 .9-.4029.9-.9s-.40294-.9-.9-.9c-.49705 0-.9.4029-.9.9s.40295.9.9.9z"/><path d="m8.9 13.3c.49706 0 .9-.4029.9-.9s-.40294-.9-.9-.9-.9.4029-.9.9.40294.9.9.9z"/></g></svg>