<svg fill="none" height="16" viewBox="0 0 16 16" width="16" xmlns="http://www.w3.org/2000/svg" xmlns:xlink="http://www.w3.org/1999/xlink"><clipPath id="a"><path d="m0 0h16v16h-16z"/></clipPath><g clip-path="url(#a)"><path d="m8 15.5c4.1421 0 7.5-3.3579 7.5-7.5 0-4.14214-3.3579-7.5-7.5-7.5-4.14214 0-7.5 3.35786-7.5 7.5 0 4.1421 3.35786 7.5 7.5 7.5z" stroke="#c5c9d3" stroke-linecap="round" stroke-linejoin="round" stroke-miterlimit="10"/><path d="m5.1002 7.10005c.49705 0 .9-.40295.9-.9 0-.49706-.40295-.9-.9-.9-.49706 0-.9.40294-.9.9 0 .49705.40294.9.9.9z" fill="#c5c9d3"/><path d="m10.9 7.10005c.4971 0 .9-.40295.9-.9 0-.49706-.4029-.9-.9-.9s-.9.40294-.9.9c0 .49705.4029.9.9.9z" fill="#c5c9d3"/><path d="m3.90039 9.3999c.4 1.7 2.1 3 4.1 3 2.00001 0 3.70001-1.3 4.10001-3" stroke="#c5c9d3" stroke-linejoin="round" stroke-miterlimit="10"/></g></svg>