<svg fill="none" height="16" viewBox="0 0 16 16" width="16" xmlns="http://www.w3.org/2000/svg"><g clip-rule="evenodd" fill="#c5c9d3" fill-rule="evenodd"><path d="m8.19172 5.80828c-.06317-.00545-.12709-.00823-.19167-.00823-1.21503 0-2.2.98497-2.2 2.2 0 .06458.00278.1285.00823.19167zm-.38352 4.38352c.06322.0055.12721.0082.19185.0082 1.21503 0 2.19995-.98492 2.19995-2.19995 0-.06464-.0027-.12863-.0082-.19185z"/><path d="m3.95789 10.0419-1.16391-.84644-.58817.80874 1.03621.7536zm1.69417 2.3059c1.9098.8301 4.18475.5743 5.94784-.748v.0001l.0044-.0034 4.3-3.30002-.6088-.79331-4.2977 3.29823c-1.36573 1.0232-3.07875 1.2758-4.57231.7729z"/><path d="m10.3478 3.65215c-1.90982-.83022-4.18481-.57444-5.94793.7479l-.00002-.00003-.00439.00337-4.300001 3.3.608819.79331 4.297752-3.29827c1.36572-1.0232 3.07878-1.27576 4.57236-.77285zm2.3803 1.61968-.7129.71289 1.1789.91097.6115-.79128z"/></g><path d="m4 12 8-8" stroke="#c5c9d3"/></svg>