<svg fill="none" height="16" viewBox="0 0 16 16" width="16" xmlns="http://www.w3.org/2000/svg" xmlns:xlink="http://www.w3.org/1999/xlink"><clipPath id="a"><path d="m0 0h16v16h-16z"/></clipPath><g clip-path="url(#a)"><path d="m6.9002 4.5h-1.7v-3.5c0-.3.2-.5.5-.5h1.8v3.5c0 .3-.3.5-.6.5z" fill="#c5c9d3"/><path d="m0 2.5h6.3" stroke="#c5c9d3" stroke-miterlimit="10"/><path d="m9.2002 2.5h6.8" stroke="#c5c9d3" stroke-miterlimit="10"/><path d="m3.7 10h-1.7v-3.5c0-.3.2-.5.5-.5h1.8v3.5c0 .3-.3.5-.6.5z" fill="#c5c9d3"/><path d="m0 8h3.1" stroke="#c5c9d3" stroke-miterlimit="10"/><path d="m6 8h10" stroke="#c5c9d3" stroke-miterlimit="10"/><path d="m11.0002 15.5h-1.8v-3.5c0-.3.2-.5.5-.5h1.8v3.5c0 .3-.2.5-.5.5z" fill="#c5c9d3"/><g stroke="#c5c9d3" stroke-miterlimit="10"><path d="m0 13.5h10.4"/><path d="m13.2998 13.5h2.7"/></g></g></svg>