<svg fill="none" height="16" viewBox="0 0 16 16" width="16" xmlns="http://www.w3.org/2000/svg" xmlns:xlink="http://www.w3.org/1999/xlink"><clipPath id="a"><path d="m0 0h16v16h-16z"/></clipPath><g clip-path="url(#a)" stroke="#c5c9d3" stroke-miterlimit="10"><path d="m2.8999 2.60015 2.2-2.200004"/><path d="m13.9997 11.8999-3.8 3.8"/><path d="m11.6001.700195 2.6 2.600005"/><path d="m1.7998 5.00005h1.7c.3 0 .5-.1.7-.3l4.4-4.400001"/><path d="m9.9999 12.5-1.8 1.8c-.2.2-.4.3-.6.3h-4.7"/><path d="m9.5 2 4.9 4.9c.3.3.3.9 0 1.2l-3.3 3.3"/><path d="m7 5.3001.6-.6c.3-.3.9-.3 1.2 0l3.2 3.2"/><path d="m.899902 7.4001h3.699998c.2 0 .5-.1.6-.3l1-1"/><path d="m3.3999 12.2h-2.499998"/><path d="m10.3998 8.80005-3.2 3.19995c-.2.2-.4.3-.6.3h-1.8"/><path d="m.899902 9.8h4.599998c.2 0 .5-.1.6-.3l2.5-2.5"/></g></svg>