<svg fill="none" height="16" viewBox="0 0 16 16" width="16" xmlns="http://www.w3.org/2000/svg" xmlns:xlink="http://www.w3.org/1999/xlink"><clipPath id="a"><path d="m0 0h16v16h-16z"/></clipPath><g clip-path="url(#a)" stroke="#c5c9d3" stroke-miterlimit="10"><path d="m3.64304 5.23554c1.27094 0 2.30124-1.0303 2.30124-2.30124s-1.0303-2.301243-2.30124-2.301243-2.30124 1.030303-2.30124 2.301243 1.0303 2.30124 2.30124 2.30124z"/><path d="m3.64304 15.3671c1.27094 0 2.30124-1.0303 2.30124-2.3012 0-1.271-1.0303-2.3013-2.30124-2.3013s-2.30124 1.0303-2.30124 2.3013c0 1.2709 1.0303 2.3012 2.30124 2.3012z"/><path d="m5.94409 2.93433h2.79831l2.9211 4.67612-2.79836 5.45545h-2.92105"/><path d="m11.6633 7.61035h2.6756"/><path d="m13.0442 5.66504 1.6139 1.94531-1.5157 1.83487"/></g></svg>