<svg fill="none" height="16" viewBox="0 0 16 16" width="16" xmlns="http://www.w3.org/2000/svg" xmlns:xlink="http://www.w3.org/1999/xlink"><clipPath id="a"><path d="m0 0h16v16h-16z"/></clipPath><g clip-path="url(#a)" stroke="#c5c9d3" stroke-miterlimit="10"><path d="m13.1356 15.0116c1.2885 0 2.3331-1.0445 2.3331-2.333 0-1.2886-1.0446-2.3331-2.3331-2.3331s-2.3331 1.0445-2.3331 2.3331c0 1.2885 1.0446 2.333 2.3331 2.333z"/><path d="m2.86385 15.0116c1.28853 0 2.33309-1.0445 2.33309-2.333 0-1.2886-1.04456-2.3331-2.33309-2.3331s-2.333088 1.0445-2.333088 2.3331c0 1.2885 1.044558 2.333 2.333088 2.333z"/><path d="m10.8089 12.6787h-5.61188"/><path d="m2.86385 5.65446c1.28853 0 2.33309-1.04456 2.33309-2.33309s-1.04456-2.333089-2.33309-2.333089-2.333088 1.044559-2.333088 2.333089 1.044558 2.33309 2.333088 2.33309z"/><path d="m5.19702 3.32764h5.61188l3.596 3.63339"/><path d="m14.2617 3.83154.1431 3.12946h-2.8059"/></g></svg>