<svg fill="none" height="16" viewBox="0 0 16 16" width="16" xmlns="http://www.w3.org/2000/svg" xmlns:xlink="http://www.w3.org/1999/xlink"><clipPath id="a"><path d="m0 0h16v16h-16z"/></clipPath><g clip-path="url(#a)" stroke="#c5c9d3" stroke-miterlimit="10"><path d="m5.59961 16v-3.3c0-.4.3-.7.7-.7h4.19999v4"/><path d="m1.5 11v2.1c0 .5.3 1 .7 1.3l1.9 1.2"/><path d="m3.8002.199951v2.399999c0 .3-.1.7-.4.9l-1.2 1.2"/><path d="m12.2998.199951v2.399999c0 .3.1.7.4.9l1.3 1.3"/><path d="m10.9002 1.19995-1.3 1.1c-.9.8-2.3.8-3.2 0l-1.2-1.1"/><path d="m14.2998 5.80005c0 2.3-2.8 4.19995-6.2 4.19995s-6.3-1.89995-6.3-4.19995"/></g></svg>