<svg fill="none" height="16" viewBox="0 0 16 16" width="16" xmlns="http://www.w3.org/2000/svg" xmlns:xlink="http://www.w3.org/1999/xlink"><clipPath id="a"><path d="m0 0h16v16h-16z"/></clipPath><g clip-path="url(#a)" stroke="#c5c9d3" stroke-miterlimit="10"><path d="m8 15.5c4.1421 0 7.5-3.3579 7.5-7.5 0-4.14214-3.3579-7.5-7.5-7.5-4.14214 0-7.5 3.35786-7.5 7.5 0 4.1421 3.35786 7.5 7.5 7.5z"/><path d="m8.0002 15.5c2.0987 0 3.8-3.3579 3.8-7.5 0-4.14214-1.7013-7.5-3.8-7.5-2.09869 0-3.8 3.35786-3.8 7.5 0 4.1421 1.70131 7.5 3.8 7.5z"/><path d="m.5 8h15"/><path d="m1.5 4.19995h12.8"/><path d="m1.5 11.8h13"/><path d="m8 .5v15"/></g></svg>