<svg fill="none" height="16" viewBox="0 0 16 16" width="16" xmlns="http://www.w3.org/2000/svg" xmlns:xlink="http://www.w3.org/1999/xlink"><clipPath id="a"><path d="m0 0h16v16h-16z"/></clipPath><g clip-path="url(#a)" stroke="#c5c9d3" stroke-miterlimit="10"><path d="m14.3682 2.25271v12.73669c0 .3042-.2471.5513-.5513.5513h-10.49981s-.03169-.0127-.03169-.0317v-13.7759s.01268-.03168.03169-.03168h10.49981c.3042 0 .5513.24713.5513.55129z"/><path d="m3.27912 1.70147-1.49545-1.23565s-.05703.000001-.05703.025348l-.09505 13.566832s0 .019.01267.0253l1.68919 1.4753"/><path d="m1.89755.453125h10.54425c.3422 0 .621.253463.621.570295v.67802" stroke-width=".96"/><path d="m5.26259 3.8811h7.30621c.114 0 .2027.09506.2027.21545v2.75645c0 .1204-.0887.21545-.2027.21545h-7.30621c-.11406 0-.20278-.09505-.20278-.21545v-2.75645c0-.12039.08872-.21545.20278-.21545z" stroke-width=".98"/></g></svg>