<svg fill="none" height="16" viewBox="0 0 16 16" width="16" xmlns="http://www.w3.org/2000/svg" xmlns:xlink="http://www.w3.org/1999/xlink"><clipPath id="a"><path d="m0 0h16v16h-16z"/></clipPath><g clip-path="url(#a)"><path d="m9.6 6.60005-1.6-.9 1.3-2.9" stroke="#c5c9d3" stroke-miterlimit="10"/><path d="m7.9998 10.9c2.8719 0 5.2-2.32812 5.2-5.2s-2.3281-5.2-5.2-5.2c-2.87188 0-5.2 2.32812-5.2 5.2s2.32812 5.2 5.2 5.2z" stroke="#c5c9d3" stroke-miterlimit="10"/><g fill="#c5c9d3"><path d="m3.4 16c.7732 0 1.4-.6268 1.4-1.4s-.6268-1.4-1.4-1.4-1.4.6268-1.4 1.4.6268 1.4 1.4 1.4z"/><path d="m7.99961 16c.7732 0 1.4-.6268 1.4-1.4s-.6268-1.4-1.4-1.4-1.4.6268-1.4 1.4.6268 1.4 1.4 1.4z"/><path d="m12.6002 16c.7732 0 1.4-.6268 1.4-1.4s-.6268-1.4-1.4-1.4-1.4.6268-1.4 1.4.6268 1.4 1.4 1.4z"/></g></g></svg>