<svg fill="none" height="16" viewBox="0 0 16 16" width="16" xmlns="http://www.w3.org/2000/svg"><path d="m7.98915 1.60019c-.08399.00182-.16225.02958-.23745.08119l-7.600003 6.00001c-.1748035.14048-.1996355.39957-.0687783.56878.1290463.16672.4034643.1935.5687863.0625l7.350005-5.8 7.34999 5.8c.1653.131.4322.10324.5625-.0625.1293-.16448.1155-.43778-.0625-.56878l-7.59999-6.00001c-.08901-.05859-.17858-.083-.26256-.08119zm-4.98751 5.38143-.79993.63129v6.38749c0 .2209.17899.3998.39983.3998h3.8c.22084 0 .39997-.1791.39997-.3999v-2.4c0-.6717.52832-1.2001 1.20007-1.2001s1.20007.5284 1.20007 1.2001v2.4c0 .2208.17899.3999.39982.3999h3.80003c.2208 0 .3999-.1791.3999-.3999v-6.38753l-.7999-.63129v6.61862h-3v-2c0-1.1012-.89885-2.00004-1.99999-2.00004s-2 .89884-2 2.00004v2h-3z" fill="#c5c9d3"/></svg>