<svg fill="none" height="16" viewBox="0 0 16 16" width="16" xmlns="http://www.w3.org/2000/svg"><g stroke="#c5c9d3" stroke-miterlimit="10"><path d="m7.9 3.5c.22386 0 .4.17614.4.4 0 .12136-.05099.25693-.14034.36003-.08813.10169-.18341.13997-.25966.13997-.22386 0-.4-.17614-.4-.4 0-.12136.05099-.25693.14034-.36003.08813-.10169.18341-.13997.25966-.13997zm.1 8.8h-.3v-5.3h.3z" fill="#c5c9d3"/><path d="m15.5 8c0 4.125-3.375 7.5-7.5 7.5s-7.5-3.375-7.5-7.5 3.375-7.5 7.5-7.5 7.5 3.375 7.5 7.5z"/></g></svg>