<svg fill="none" height="16" viewBox="0 0 16 16" width="16" xmlns="http://www.w3.org/2000/svg" xmlns:xlink="http://www.w3.org/1999/xlink"><clipPath id="a"><path d="m0 0h16v16h-16z"/></clipPath><g clip-path="url(#a)"><path d="m.7 10.4999c-.4 0-.7.3-.7.7v4.8h15.2c.4 0 .7-.3.7-.7v-4.9h-15.2zm2.1 3.8c-.6 0-1.1-.5-1.1-1.1s.5-1.1 1.1-1.1 1.1.5 1.1 1.1-.5 1.1-1.1 1.1zm3.2 0c-.6 0-1.1-.5-1.1-1.1s.5-1.1 1.1-1.1 1 .6 1 1.1-.5 1.1-1 1.1z" fill="#c5c9d3"/><g stroke="#c5c9d3" stroke-linejoin="round" stroke-miterlimit="10"><path d="m8 0v8.4"/><path d="m12.3002 4.19995-4.3 4.2-4.3-4.2"/></g></g></svg>