<svg fill="none" height="16" viewBox="0 0 16 16" width="16" xmlns="http://www.w3.org/2000/svg" xmlns:xlink="http://www.w3.org/1999/xlink"><clipPath id="a"><path d="m0 0h16v16h-16z"/></clipPath><g clip-path="url(#a)"><path d="m.7 10.3999c-.4 0-.7.3-.7.7v4.9h15.3c.4 0 .7-.3.7-.7v-4.9zm2.1 3.9c-.6 0-1.1-.5-1.1-1.1s.5-1.1 1.1-1.1 1.1.5 1.1 1.1c-.1.6-.5 1.1-1.1 1.1zm3.1 0c-.6 0-1.1-.5-1.1-1.1s.5-1.1 1.1-1.1 1.1.5 1.1 1.1-.5 1.1-1.1 1.1z" fill="#c5c9d3"/><path d="m2.7998 4.7999 2.8 2.8c.3.3.9.3 1.2 0l7.2-7.199998" stroke="#c5c9d3" stroke-miterlimit="10"/></g></svg>