<svg fill="none" height="16" viewBox="0 0 16 16" width="16" xmlns="http://www.w3.org/2000/svg" xmlns:xlink="http://www.w3.org/1999/xlink"><clipPath id="a"><path d="m0 0h16v16h-16z"/></clipPath><g clip-path="url(#a)"><path d="m4.40039 15.4999v-3.1h5.3" stroke="#c5c9d3" stroke-linejoin="round" stroke-miterlimit="10"/><path d="m.700195 15.4999v-3.1h2.100005" stroke="#c5c9d3" stroke-linejoin="round" stroke-miterlimit="10"/><path d="m11.0002 9.30005c-.7 0-1.3.6-1.3 1.29995v5h5c.7 0 1.3-.6 1.3-1.3v-4.99995zm1.9 4.79995c-.9 0-1.7-.8-1.7-1.7s.8-1.7 1.7-1.7 1.7.8 1.7 1.7-.8 1.7-1.7 1.7z" fill="#c5c9d3"/><path d="m11.5998 6.7001v-3.1h-5.3" stroke="#c5c9d3" stroke-linejoin="round" stroke-miterlimit="10"/><path d="m0 .5v5c0 .7.6 1.3 1.3 1.3h5v-5c0-.8-.6-1.3-1.3-1.3zm1.4 3.1c0-.9.8-1.7 1.7-1.7s1.7.8 1.7 1.7-.8 1.7-1.7 1.7-1.7-.8-1.7-1.7z" fill="#c5c9d3"/><path d="m15.3002 6.7001v-3.1h-2.1" stroke="#c5c9d3" stroke-linejoin="round" stroke-miterlimit="10"/></g></svg>