<svg fill="none" height="16" viewBox="0 0 16 16" width="16" xmlns="http://www.w3.org/2000/svg" xmlns:xlink="http://www.w3.org/1999/xlink"><clipPath id="a"><path d="m0 0h16v16h-16z"/></clipPath><g clip-path="url(#a)"><path d="m11.6002.199951c-2.4 0-4.4 1.999999-4.4 4.399999s2 4.4 4.4 4.4 4.4-2 4.4-4.4-2-4.399999-4.4-4.399999zm0 5.899999c-.9 0-1.6-.7-1.6-1.6s.8-1.5 1.6-1.5c.9 0 1.6.7 1.6 1.6s-.7 1.5-1.6 1.5z" fill="#c5c9d3"/><g stroke="#c5c9d3" stroke-miterlimit="10"><path d="m.5 15.3001.5-2.8c0-.1.1-.2.2-.3l5.1-5.1"/><path d="m5.3002 11.3999-.6 3.5c-.1.3-.3.5-.6.5l-1.9-.4"/><path d="m8.9998 9.6001-.4 2.3c-.1.3-.3.5-.6.5l-1.2-.2"/></g></g></svg>