<svg fill="none" height="16" viewBox="0 0 16 16" width="16" xmlns="http://www.w3.org/2000/svg"><path d="m14.8156 0h-13.63435c-.653125 0-1.18125.515625-1.18125 1.15313v13.69067c0 .6375.528125 1.1562 1.18125 1.1562h13.63435c.6532 0 1.1844-.5187 1.1844-1.1531v-13.69377c0-.637505-.5312-1.15313-1.1844-1.15313zm-10.06873 13.6344h-2.37499v-7.63753h2.37499zm-1.18749-8.67815c-.7625 0-1.37813-.61563-1.37813-1.375s.61563-1.375 1.37813-1.375c.75937 0 1.37499.61563 1.37499 1.375 0 .75625-.61562 1.375-1.37499 1.375zm10.07502 8.67815h-2.3719v-3.71252c0-.88438-.0156-2.02501-1.2344-2.02501-1.23435 0-1.42185.96563-1.42185 1.96251v3.77502h-2.36875v-7.63753h2.275v1.04376h.03125c.31563-.6 1.09063-1.23438 2.24375-1.23438 2.4031 0 2.8469 1.58125 2.8469 3.6375z" fill="#c5c9d3"/></svg>