<svg fill="none" height="16" viewBox="0 0 16 16" width="16" xmlns="http://www.w3.org/2000/svg" xmlns:xlink="http://www.w3.org/1999/xlink"><clipPath id="a"><path d="m0 0h16v16h-16z"/></clipPath><g clip-path="url(#a)"><g stroke="#c5c9d3" stroke-miterlimit="10"><path d="m5.7002 1.6001h10.3"/><path d="m5.7002 8h10.3"/><path d="m5.7002 14.3999h10.3"/></g><g fill="#c5c9d3"><path d="m1.6 3.1c-.9 0-1.6-.7-1.6-1.5 0-.9.7-1.6 1.6-1.6s1.6.7 1.6 1.6c-.1.8-.8 1.5-1.6 1.5z"/><path d="m1.6 9.5999c-.9 0-1.6-.7-1.6-1.6s.7-1.6 1.6-1.6 1.6.7 1.6 1.6c-.1.9-.8 1.6-1.6 1.6z"/><path d="m1.6 16c-.9 0-1.6-.7-1.6-1.6s.7-1.6 1.6-1.6 1.6.7 1.6 1.6c-.1.9-.8 1.6-1.6 1.6z"/></g></g></svg>