<svg fill="none" height="16" viewBox="0 0 16 16" width="16" xmlns="http://www.w3.org/2000/svg" xmlns:xlink="http://www.w3.org/1999/xlink"><clipPath id="a"><path d="m0 0h16v16h-16z"/></clipPath><g clip-path="url(#a)"><g stroke="#c5c9d3" stroke-miterlimit="10"><path d="m1.7002 13.1v-4.7c0-.5.4-.9.9-.9h12.2"/><path d="m8 13.1v-11.40005"/><path d="m14.2998 13.1001v-4"/></g><g fill="#c5c9d3"><path d="m1.7 16.0001c.93888 0 1.7-.7611 1.7-1.7s-.76112-1.7-1.7-1.7c-.938884 0-1.7.7611-1.7 1.7s.761116 1.7 1.7 1.7z"/><path d="m14.2996 16.0001c.9389 0 1.7-.7611 1.7-1.7s-.7611-1.7-1.7-1.7-1.7.7611-1.7 1.7.7611 1.7 1.7 1.7z"/><path d="m7.9998 16.0001c.93889 0 1.7-.7611 1.7-1.7s-.76111-1.7-1.7-1.7c-.93888 0-1.7.7611-1.7 1.7s.76112 1.7 1.7 1.7z"/><path d="m7.9998 3.4c.93889 0 1.7-.76112 1.7-1.7 0-.938884-.76111-1.7-1.7-1.7-.93888 0-1.7.761116-1.7 1.7 0 .93888.76112 1.7 1.7 1.7z"/></g></g></svg>