<svg fill="none" height="16" viewBox="0 0 16 16" width="16" xmlns="http://www.w3.org/2000/svg" xmlns:xlink="http://www.w3.org/1999/xlink"><clipPath id="a"><path d="m0 0h16v16h-16z"/></clipPath><g clip-path="url(#a)"><path d="m.0996094 2.5h5.1000006" stroke="#c5c9d3" stroke-miterlimit="10"/><path d="m2.7002 5.1v-5.1" stroke="#c5c9d3" stroke-miterlimit="10"/><path d="m4.89961 11.3c1.27025 0 2.3-1.0298 2.3-2.30005s-1.02975-2.3-2.3-2.3c-1.27026 0-2.3 1.02975-2.3 2.3s1.02974 2.30005 2.3 2.30005z" fill="#c5c9d3"/><path d="m8.5 16v-1.5c0-.6-.5-1-1-1h-5.5" stroke="#c5c9d3" stroke-miterlimit="10"/><path d="m11.8996 8.1c1.2703 0 2.3-1.02974 2.3-2.3 0-1.27025-1.0297-2.3-2.3-2.3-1.2702 0-2.29999 1.02975-2.29999 2.3 0 1.27026 1.02979 2.3 2.29999 2.3z" fill="#c5c9d3"/><path d="m15.5004 13.7v-2.4c0-.6-.5-1-1-1h-5.60001" stroke="#c5c9d3" stroke-miterlimit="10"/></g></svg>