<svg fill="none" height="16" viewBox="0 0 16 16" width="16" xmlns="http://www.w3.org/2000/svg" xmlns:xlink="http://www.w3.org/1999/xlink"><clipPath id="a"><path d="m0 0h16v16h-16z"/></clipPath><g clip-path="url(#a)" stroke="#c5c9d3" stroke-miterlimit="10"><path d="m8 15.5c4.1421 0 7.5-3.3579 7.5-7.5 0-4.14214-3.3579-7.5-7.5-7.5-4.14214 0-7.5 3.35786-7.5 7.5 0 4.1421 3.35786 7.5 7.5 7.5z"/><path d="m8.2002 10.1h1.1l.5 1.7c.1.5.5.8 1 .8.7 0 1.2-.7 1-1.4l-2-6.39995"/><path d="m9.5002 3.30005h-2c-.5 0-.9.3-1 .7l-2.3 7.19995c-.2.7.3 1.4 1 1.4.5 0 .9-.3 1-.8l.5-1.7"/></g></svg>