<svg fill="none" height="16" viewBox="0 0 16 16" width="16" xmlns="http://www.w3.org/2000/svg" xmlns:xlink="http://www.w3.org/1999/xlink"><clipPath id="a"><path d="m0 0h16v16h-16z"/></clipPath><g clip-path="url(#a)" stroke="#c5c9d3" stroke-miterlimit="10"><path d="m.5 16v-7.3c0-.4.3-.7.7-.7h3.5"/><path d="m4.2002 6.3001v-5c0-.400002.3-.700002.7-.700002h7.4"/><path d="m8 2v2.3"/><path d="m4.2002 9.5v2.3"/><path d="m11.7002 9.5v2.3"/><path d="m11.9002 2.5v4.7c0 .4-.3.7-.7.7h-4.5"/><path d="m8 10v4.7c0 .4-.3.7-.7.7h-4.8"/><path d="m13.9 8h1.6v6.7c0 .4-.3.7-.7.7h-4.8"/></g></svg>