<svg fill="none" height="16" viewBox="0 0 16 16" width="16" xmlns="http://www.w3.org/2000/svg" xmlns:xlink="http://www.w3.org/1999/xlink"><clipPath id="a"><path d="m0 0h16v16h-16z"/></clipPath><g clip-path="url(#a)"><path d="m4.6001 10.1v-7.89995c0-.8.6-1.400001 1.4-1.400001h4c.8 0 1.4.600001 1.4 1.400001v7.79995" stroke="#c5c9d3" stroke-miterlimit="10"/><path d="m3.3001 6.90015c-.7 0-1.2.5-1.2 1.2v7.89995h10.5c.7 0 1.2-.5 1.2-1.2v-7.89995zm5.7 5.79995c0 .1-.1.1-.1.1h-1.3v.6h-.6v-3.3c0-.1.1-.1.1-.1h1.3v-.59995h.6z" fill="#c5c9d3"/></g></svg>