<svg fill="none" height="16" viewBox="0 0 16 16" width="16" xmlns="http://www.w3.org/2000/svg" xmlns:xlink="http://www.w3.org/1999/xlink"><clipPath id="a"><path d="m0 0h16v16h-16z"/></clipPath><g clip-path="url(#a)"><path d="m6.78216 5.63023c.21708-.1628.48239-.22913.7477-.18692s.50048.18089.66328.39797l7.22976 8.15832-1.7607 1.5075-7.07902-8.45986c-.16281-.21104-.22913-.48238-.19295-.74167.03617-.26531.17486-.50047.3859-.66328z" stroke="#c5c9d3" stroke-miterlimit="10"/><g fill="#c5c9d3"><path d="m3.224.49292-.72961 1.8813-1.917486.9286 1.802916.77784 1.212 1.70042 1.03713-1.89337 1.53157-.94065-1.94763-.66328z"/><path d="m2.66992 9.08546.82609 1.06724-.12663 1.417 1.06728-.7657 1.39289-.1086-.72961-1.24815-.01206-1.19994-1.04919.89242z"/><path d="m10.0375 1.02954.1206 1.76674-1.16982 1.45922 1.72452-.0603 1.6039.89844.1146-1.89336.8562-1.32053-1.7908.20501z"/></g></g></svg>