<svg fill="none" height="16" viewBox="0 0 16 16" width="16" xmlns="http://www.w3.org/2000/svg" xmlns:xlink="http://www.w3.org/1999/xlink"><clipPath id="a"><path d="m0 0h16v16h-16z"/></clipPath><g clip-path="url(#a)"><path d="m1.83704 11.3917h-1.307255v-3.08143c0-.18675.186751-.3735.373502-.3735h1.307253v3.08143c0 .1867-.09337.3735-.3735.3735z" fill="#c5c9d3"/><path d="m15.0968 11.3917h-1.3072v-3.08143c0-.18675.1867-.3735.3735-.3735h1.3072v3.08143c0 .1867-.1867.3735-.3735.3735z" fill="#c5c9d3"/><path d="m8 1.5874v1.77414" stroke="#c5c9d3" stroke-miterlimit="10" stroke-width=".933754"/><path d="m8.00001 2.42776c.67041 0 1.21388-.54347 1.21388-1.21388 0-.670407-.54347-1.21388-1.21388-1.21388-.6704 0-1.21388.543473-1.21388 1.21388 0 .67041.54348 1.21388 1.21388 1.21388z" fill="#c5c9d3"/><path d="m3.51823 5.229c-.46688 0-.93376.46688-.93376.93376v8.31044h9.89783c.4668 0 .9337-.4669.9337-.9338v-8.3104z" stroke="#c5c9d3" stroke-miterlimit="10" stroke-width=".933754"/><path d="m5.57275 11.7654h4.85555" stroke="#c5c9d3" stroke-miterlimit="10" stroke-width=".933754"/><g fill="#c5c9d3"><path d="m5.6658 9.61774c-.56025 0-1.02713-.46688-1.02713-1.02713 0-.56026.46688-1.02713 1.02713-1.02713s1.02713.46687 1.02713 1.02713c0 .56025-.46688 1.02713-1.02713 1.02713z"/><path d="m10.3347 9.61774c-.56021 0-1.02708-.46688-1.02708-1.02713 0-.56026.46687-1.02713 1.02708-1.02713.5603 0 1.0272.46687 1.0272 1.02713 0 .56025-.4669 1.02713-1.0272 1.02713z"/></g></g></svg>