<svg fill="none" height="16" viewBox="0 0 16 16" width="16" xmlns="http://www.w3.org/2000/svg" xmlns:xlink="http://www.w3.org/1999/xlink"><clipPath id="a"><path d="m0 0h16v16h-16z"/></clipPath><g clip-path="url(#a)"><path d="m15.5001 1.30005-.6 4.1c-.2 1-.8 1.9-1.7 2.4l-2.5 1.3-1.1.5" stroke="#c5c9d3" stroke-miterlimit="10"/><path d="m13.2002 1.69995-1.8.3c-1 .2-1.9.8-2.4 1.7l-1.8 3.5" stroke="#c5c9d3" stroke-miterlimit="10"/><path d="m11.9 5.70015c.4971 0 .9-.40295.9-.9 0-.49706-.4029-.9-.9-.9s-.9.40294-.9.9c0 .49705.4029.9.9.9z" fill="#c5c9d3"/><path d="m2.6001 8.3001 1.1-.8c.3-.3.7-.4 1.1-.2l.6.2" stroke="#c5c9d3" stroke-miterlimit="10"/><path d="m8.5 14.2001.8-1.1c.2-.3.3-.7.2-1.1l-.2-.6" stroke="#c5c9d3" stroke-miterlimit="10"/><path d="m5.5 11.6-.7.7-.8-.9c-.1-.1-.2-.1-.3 0l-3 3-.7.7.7.7.7-.7.9.9c.1.1.2.1.3 0l3-3 .7-.7z" fill="#c5c9d3"/><path d="m6.6001 10.2 1.5-1.50005" stroke="#c5c9d3" stroke-miterlimit="10"/></g></svg>