<svg fill="none" height="16" viewBox="0 0 16 16" width="16" xmlns="http://www.w3.org/2000/svg" xmlns:xlink="http://www.w3.org/1999/xlink"><clipPath id="a"><path d="m0 0h16v16h-16z"/></clipPath><g clip-path="url(#a)" fill="#c5c9d3"><path d="m.7 0c-.4 0-.7.3-.7.7v2.8h15.3c.4 0 .7-.3.7-.7v-2.8zm1.5 2.8c-.6 0-1-.4-1-1s.4-1 1-1 1 .4 1 1c0 .5-.4 1-1 1zm10.3-.4h-6.5v-1.3h6.5z"/><path d="m.7 6.19995c-.4 0-.7.4-.7.7v2.8h15.3c.4 0 .7-.3.7-.7v-2.8zm1.5 2.8c-.6 0-1-.4-1-1s.4-1 1-1 1 .4 1 1-.4 1-1 1zm10.3-.4h-6.5v-1.3h6.5z"/><path d="m.7 12.5c-.4 0-.7.3-.7.7v2.8h15.3c.4 0 .7-.3.7-.7v-2.8zm1.5 2.7c-.6 0-1-.4-1-1s.4-1 1-1 1 .4 1 1-.4 1-1 1zm10.3-.3h-6.5v-1.3h6.5z"/></g></svg>