<svg fill="none" height="16" viewBox="0 0 16 16" width="16" xmlns="http://www.w3.org/2000/svg"><g stroke="#c5c9d3" stroke-linejoin="round" stroke-miterlimit="10"><path d="m5.49961 14.6999c1.60163 0 2.9-1.2984 2.9-2.9s-1.29837-2.9-2.9-2.9-2.9 1.2984-2.9 2.9 1.29837 2.9 2.9 2.9z"/><path d="m5.5 7.5v1.3"/><path d="m5.5 14.7v1.3"/><path d="m1.2998 11.8h1.3"/><path d="m8.39941 11.8h1.3"/><path d="m2.5 8.80005.9.9"/><path d="m7.59961 13.8999.9.9"/><path d="m2.5 14.8001.9-.9"/><path d="m7.59961 9.70005.9-.9"/><path d="m10.4996 7.10005c1.6016 0 2.9-1.29838 2.9-2.9 0-1.60163-1.2984-2.9-2.9-2.9-1.60162 0-2.89999 1.29837-2.89999 2.9 0 1.60162 1.29837 2.9 2.89999 2.9z"/><path d="m10.5 0v1.3"/><path d="m10.5 7.19995v1.3"/><path d="m6.2998 4.19995h1.3"/><path d="m13.3994 4.19995h1.3"/><path d="m7.5 1.19995.9.9"/><path d="m12.5996 6.2998.9.9"/><path d="m7.5 7.20005.9-.9"/><path d="m12.5996 2.09995.9-.9"/></g><g fill="#c5c9d3"><path d="m5.49961 12.6999c.49706 0 .9-.4029.9-.9s-.40294-.9-.9-.9-.9.4029-.9.9.40294.9.9.9z"/><path d="m10.4996 5.10005c.4971 0 .9-.40295.9-.9 0-.49706-.4029-.9-.9-.9-.497 0-.89999.40294-.89999.9 0 .49705.40299.9.89999.9z"/></g></svg>