<svg fill="none" height="16" viewBox="0 0 16 16" width="16" xmlns="http://www.w3.org/2000/svg" xmlns:xlink="http://www.w3.org/1999/xlink"><clipPath id="a"><path d="m0 0h16v16h-16z"/></clipPath><g clip-path="url(#a)"><path d="m5.80045 7.5h-4.5c-.500002 0-.900002.5-.700002 1l2.000002 7.1" stroke="#c5c9d3" stroke-miterlimit="10"/><path d="m15.9998 9.5h-10.2" stroke="#c5c9d3" stroke-miterlimit="10"/><path d="m15.1998 7.5h-3.4v-3.7c0-.4.4-.8.8-.8h3.4v3.7c0 .5-.4.8-.8.8z" fill="#c5c9d3"/><path d="m10.7002 1h5.3" stroke="#c5c9d3" stroke-miterlimit="10"/><path d="m4.5 15.4h9.5c.8 0 1.5-.7 1.5-1.5v-1.6" stroke="#c5c9d3" stroke-miterlimit="10"/><g fill="#c5c9d3"><path d="m5.4 13.1c.49706 0 .9-.4029.9-.9 0-.497-.40294-.9-.9-.9s-.9.403-.9.9c0 .4971.40294.9.9.9z"/><path d="m7.99961 13.1c.49706 0 .9-.4029.9-.9 0-.497-.40294-.9-.9-.9s-.9.403-.9.9c0 .4971.40294.9.9.9z"/></g></g></svg>