<svg fill="none" height="16" viewBox="0 0 16 16" width="16" xmlns="http://www.w3.org/2000/svg" xmlns:xlink="http://www.w3.org/1999/xlink"><clipPath id="a"><path d="m0 0h16v16h-16z"/></clipPath><g clip-path="url(#a)"><path d="m7.85091 11.2454-4.62667 3.5266c-.19333.1467-.45333-.06-.35333-.28l2.08-4.73996c.04-.1.01333-.21333-.06667-.28l-4.353331-3.40666c-.173333-.13334-.079999-.42.146668-.42h4.520003c.08666 0 .15999-.04667.19999-.12l2.4-4.22667c.08667-.16.31334-.16.40667 0l2.39996 4.22667c.04.07333.12.12.2.12h4.52c.22 0 .32.28.1467.42l-4.3533 3.40666c-.0867.06667-.1134.18-.0667.28l2.08 4.73996c.1.22-.1667.4267-.3533.28l-4.62669-3.5266c-.08667-.0667-.2-.0667-.28 0z" stroke="#c5c9d3" stroke-miterlimit="10"/></g></svg>