<svg fill="none" height="16" viewBox="0 0 16 16" width="16" xmlns="http://www.w3.org/2000/svg" xmlns:xlink="http://www.w3.org/1999/xlink"><clipPath id="a"><path d="m0 0h16v16h-16z"/></clipPath><g clip-path="url(#a)"><g fill="#c5c9d3"><path d="m9.9 10.8001 1.2-1.2 3.5 3.5c.1.1.1.4 0 .5l-1.2 1.2-3.5-3.5c-.2-.1-.2-.3 0-.5z"/><path d="m1.4002 2.4002 1.2-1.2 3.5 3.5c.1.09999.1.4 0 .5l-1.2 1.2-3.5-3.5c-.1-.1-.1-.4 0-.5z"/><path d="m10.7996 6.1002-1.19999-1.2 3.49999-3.5c.1-.1.4-.1.5 0l1.2 1.2-3.5 3.5c-.1.2-.3.2-.5 0z"/><path d="m2.6002 14.9002-1.2-1.2c-.1-.1-.1-.4 0-.5l3.5-3.5 1.2 1.2c.1.1.1.4 0 .5z"/></g><g stroke="#c5c9d3" stroke-miterlimit="10"><path d="m13.7998 12.7002c1.7-2.1 2.2-4.9 1.1-7.5"/><path d="m3.40039 13.9001c2.1 1.6 4.9 2.1 7.40001 1"/><path d="m2.10008 3.40015c-1.600003 2.1-2.10000323 4.9-1 7.39995"/><path d="m12.6002 2.10008c-2.1-1.600003-4.9-2.10000323-7.4-1"/><path d="m10.7004 11.4001c-1.60001 1.2-3.80001 1.2-5.30001 0"/><path d="m11.4004 5.30029c1.2 1.6 1.2 3.8 0 5.30001"/><path d="m5.2998 4.6002c1.6-1.2 3.8-1.2 5.3 0"/><path d="m4.6002 10.7001c-1.2-1.59995-1.2-3.79995 0-5.29995"/></g></g></svg>