<svg fill="none" height="16" viewBox="0 0 16 16" width="16" xmlns="http://www.w3.org/2000/svg" xmlns:xlink="http://www.w3.org/1999/xlink"><clipPath id="a"><path d="m0 0h16v16h-16z"/></clipPath><g clip-path="url(#a)" stroke="#c5c9d3" stroke-miterlimit="10"><path d="m12.739 8.80664h2.0527c.297 0 .5376-.2407.5376-.53762v-6.55524c0-.29692-.2406-.53762-.5376-.53762h-2.0527c-.2969 0-.5376.2407-.5376.53762v6.55524c0 .29692.2407.53762.5376.53762z" stroke-width=".89"/><path d="m11.1199 7.6458v-5.82825h-.8737s-5.26616-1.7411376-7.5327-.53761c0 0-.67201.32379-1.14243 1.13632l-.836963 5.51667s-.610939 1.87555 1.973283 1.65562l2.51092-.37878s-.56817 1.84503-.94083 2.41313c-.96527 1.79-1.54565 4.4048.9897 3.2257.53761-.3665 2.78582-4.4842 2.78582-4.4842s1.09357-1.86941 1.84501-2.0588c.75149-.18939 1.22189-.32379 1.22189-.6598z" stroke-width="1.04"/></g></svg>