<svg fill="none" height="16" viewBox="0 0 16 16" width="16" xmlns="http://www.w3.org/2000/svg" xmlns:xlink="http://www.w3.org/1999/xlink"><clipPath id="a"><path d="m0 0h16v16h-16z"/></clipPath><g clip-path="url(#a)" stroke="#c5c9d3" stroke-miterlimit="10"><path d="m3.23425 7.18896h-2.06442c-.298605 0-.54068.24207-.54068.54068v6.59266c0 .2986.242075.5407.54068.5407h2.06442c.29861 0 .54068-.2421.54068-.5407v-6.59266c0-.29861-.24207-.54068-.54068-.54068z" stroke-width=".89"/><path d="m4.86255 8.35624v5.86146h.8786s5.29625 1.7511 7.57565.5407c0 0 .6759-.3256 1.149-1.1428l.8417-5.54813s.6144-1.88624-1.9845-1.66505l-2.5253.38093s.5714-1.85552.9462-2.42692c.9708-1.80023 1.5545-4.4299018-.9953-3.24409-.5407.36865-2.80172 4.50977-2.80172 4.50977s-1.09978 1.8801-1.85551 2.07057c-.75572.19047-1.22882.32564-1.22882.66356z" stroke-width="1.04"/></g></svg>