<svg fill="none" height="16" viewBox="0 0 16 16" width="16" xmlns="http://www.w3.org/2000/svg"><path d="m1.94065 2.09281 1.67343 2.16562 1.80263-1.39658-1.67344-2.165613s1.59346-.535252 2.96543 1.162793c0 0 .7998 1.24276-.01846 2.86698l4.09746 5.32179s1.7472-.48607 2.9962.9351c0 0 1.0397 1.2305.3137 2.8116l-1.6673-2.1533-1.9256 1.495 1.6672 2.1533s-1.4888.5168-2.70698-.8674c-1.21816-1.3843-.20302-3.1869-.20302-3.1869l-4.1159-5.30949s-1.79647.54755-2.91619-.82441c-1.11972-1.37197-.28916-3.00849-.28916-3.00849z" stroke="#c5c9d3" stroke-miterlimit="10"/></svg>