<svg fill="none" height="16" viewBox="0 0 16 16" width="16" xmlns="http://www.w3.org/2000/svg"><path d="m12.0407 6.87817h-1.6516c-.1177 0-.2131.09541-.2131.21311v7.80202c0 .1177.0954.2131.2131.2131h1.6516c.1177 0 .2131-.0954.2131-.2131v-7.80202c0-.1177-.0954-.21311-.2131-.21311z" stroke="#c5c9d3" stroke-miterlimit="10" stroke-width="1.02"/><path d="m11.5373.964589c0-.035517-.1006-.071034-.1421-.071034h-.3315c-.0355 0-.1243.029597-.1243.071034l-.4025.970821.2545.97081v3.87142c0 .0592.0474.10063.1006.10063h.6453c.0592 0 .1006-.04735.1006-.10063v-3.87142l.2546-.97081z" fill="#c5c9d3"/><path d="m5.06118 1.5506v2.21985h1.84691v-2.21985s1.29049.44989 1.32601 2.21985c0 0-.10065 1.19576-1.43848 1.82915l-.01776 5.452s1.36152.5623 1.45624 2.0896c0 0 .05326 1.3082-1.19577 1.9594v-2.214h-1.97715v2.214s-1.21351-.4085-1.30822-1.9061c-.09472-1.4977 1.45621-2.1489 1.45621-2.1489v-5.45191s-1.42662-.53869-1.46214-1.97715 1.30824-2.07186 1.30824-2.07186z" stroke="#c5c9d3" stroke-miterlimit="10" stroke-width="1.02"/></svg>