<svg fill="none" height="16" viewBox="0 0 16 16" width="16" xmlns="http://www.w3.org/2000/svg" xmlns:xlink="http://www.w3.org/1999/xlink"><clipPath id="a"><path d="m0 0h16v16h-16z"/></clipPath><g clip-path="url(#a)"><path d="m13.9639 2.36182h-11.92806c-.85827 0-1.553662.80188-1.553662 1.78545v7.70563c0 .9836.695392 1.7854 1.553662 1.7854h11.92806c.8583 0 1.5537-.8018 1.5537-1.7854v-7.70563c0-.98357-.6954-1.78545-1.5537-1.78545zm-2.4432 6.02668-5.45664 3.4017c-.21926.1379-.46985-.0877-.46985-.4197v-6.74085c0-.33203.25059-.55756.46985-.426l5.45664 3.33911c.2631.16288.2631.68285 0 .84574z" stroke="#c5c9d3" stroke-miterlimit="10" stroke-width="1.07"/></g></svg>