<svg fill="none" height="16" viewBox="0 0 16 16" width="16" xmlns="http://www.w3.org/2000/svg" xmlns:xlink="http://www.w3.org/1999/xlink"><clipPath id="a"><path d="m0 0h16v16h-16z"/></clipPath><g clip-path="url(#a)" stroke="#c5c9d3" stroke-miterlimit="10"><path d="m.900391 6.1v-1.1c0-.5.399999-1 .999999-1h5.2"/><path d="m6.60039 6.1001v1.1c0 .5-.4 1-1 1h-5.199999"/><path d="m6.60039 10.1001v.7c0 .5-.4 1-1 1h-5.199999"/><path d="m5.40039 2.7001v-1.1c0-.5.4-1.000002 1-1.000002h5.20001"/><path d="m6.60039 13.8v.7c0 .5-.4 1-1 1h-5.199999"/><path d="m9.40039 6.1v-1.1c0-.5.4-1 1.00001-1h5.2"/><path d="m15.1004 6.1001v1.1c0 .5-.4 1-1 1h-5.20001"/><path d="m15.1004 10.1001v.7c0 .5-.4 1-1 1h-5.20001"/><path d="m15.1004 13.8v.7c0 .5-.4 1-1 1h-5.20001"/></g></svg>