<svg fill="none" height="16" viewBox="0 0 16 16" width="16" xmlns="http://www.w3.org/2000/svg"><path d="m9.7612 15.3239-.81804-1.5568c-.03053-.061-.09158-.1098-.15262-.1282-.01832 0-1.81312-.5494-3.41868-2.1733-1.88028-1.89855-3.07071-2.94858-3.65066-3.21719-.01221-.0061-.02442-.02442-.02442-.06104 0-.10989.08546-.27472.28692-.38461.2503-.1343 1.03171-.35407 2.57622.72647.24419.17094.47617.31135.71426.43344.09768.04884.21977.03053.29914-.04883.07936-.07937.09767-.20146.04273-.30524l-3.00966-5.72629c-.17093-.32966-.04884-.73258.27472-.90962.32355-.17703.73257-.04273.9035.28693l2.57622 4.89604.45786-.24419-2.76547-5.25622c-.17093-.32966-.04883-.732579.27472-.903513s.73257-.042733.90351.286923l2.77157 5.25622.45786-.24419-2.25877-4.27945c-.17094-.32966-.04884-.73258.27471-.909617.32356-.177039.73258-.042733.90351.286927l2.25267 4.27945.4579-.24419-1.54455-2.9364c-.17094-.32966-.04884-.73257.27471-.90961s.73257-.04274.90351.28692l3.21723 6.11089c.757 1.43463.5372 3.50419.5311 3.52249 0 .0488 0 .1038.0305.1526l.7998 1.514-4.54811 2.3931z" stroke="#c5c9d3"/></svg>