<svg fill="none" height="16" viewBox="0 0 16 16" width="16" xmlns="http://www.w3.org/2000/svg" xmlns:xlink="http://www.w3.org/1999/xlink"><clipPath id="a"><path d="m0 0h16v16h-16z"/></clipPath><g clip-path="url(#a)"><path d="m12.0996 12.6001c-.6 0-1-.5-1-1 0-.6.5-1 1-1 .6 0 1 .5 1 1 .1.6-.4 1-1 1z" fill="#c5c9d3"/><path d="m12.0997 11.6001h-4.90001c0 1.2-.7 2.3-1.7 2.9-.5.3-1.1.5-1.7.4-.9 0-1.7-.4-2.4-1-.600001-.6-1.000001-1.5-.900001-2.4 0-1.2.700001-2.3 1.700001-2.9" stroke="#c5c9d3" stroke-miterlimit="10"/><path d="m2.99935 11.1c.3-.5.9-.7 1.4-.4s.7.9.4 1.4-.9.7-1.4.4-.7-.9-.4-1.4z" fill="#c5c9d3"/><path d="m3.7998 11.6001 2.5-4.29999c-1-.6-1.7-1.7-1.6-2.9 0-.6.2-1.2.5-1.7.5-.8 1.2-1.3 2.1-1.5.7-.300001 1.6-.1 2.4.3 1 .6 1.7 1.7 1.6 2.9" stroke="#c5c9d3" stroke-miterlimit="10"/><path d="m8.89994 3.90008c.3.5.1 1.10001-.4 1.40001s-1.1.09999-1.4-.40001-.1-1.1.4-1.4 1.1-.1 1.4.4z" fill="#c5c9d3"/><path d="m8 4.40015 2.5 4.3c1-.6 2.3-.6 3.4 0 .5.3.9.7 1.2 1.2.4.79995.5 1.69995.3 2.59995s-.8 1.6-1.6 2c-1 .6-2.3.6-3.4 0" stroke="#c5c9d3" stroke-miterlimit="10"/></g></svg>